<?xml version="1.0" encoding="UTF-8" standalone="no"?>
<!-- Created with Inkscape (http://www.inkscape.org/) -->

<svg
   xmlns:dc="http://purl.org/dc/elements/1.1/"
   xmlns:cc="http://creativecommons.org/ns#"
   xmlns:rdf="http://www.w3.org/1999/02/22-rdf-syntax-ns#"
   xmlns:svg="http://www.w3.org/2000/svg"
   xmlns="http://www.w3.org/2000/svg"
   version="1.1"
   width="800"
   height="600"
   id="svg2">
  <metadata
     id="metadata3011">
    <rdf:RDF>
      <cc:Work
         rdf:about="">
        <dc:format>image/svg+xml</dc:format>
        <dc:type
           rdf:resource="http://purl.org/dc/dcmitype/StillImage" />
        <dc:title></dc:title>
      </cc:Work>
    </rdf:RDF>
  </metadata>
  <defs
     id="defs3009" />
  <style
     id="style2986" />
  <path
     d="M 80,40 C 48,120 200,64 280,80"
     id="path4625"
     style="opacity:0.5;fill:none;stroke:#0066cc;stroke-width:6;stroke-linecap:butt;stroke-linejoin:miter;stroke-miterlimit:4;stroke-opacity:1;stroke-dasharray:none" />
  <path
     d="M 280,80 C 440,112 440,152 520,168"
     id="path3064"
     style="opacity:0.5;fill:none;stroke:#0066cc;stroke-width:6;stroke-linecap:butt;stroke-linejoin:miter;stroke-miterlimit:4;stroke-opacity:1;stroke-dasharray:none" />
  <path
     d="M 280,80 C 320,88 344,112 360,136"
     id="path4620"
     style="opacity:0.5;fill:none;stroke:#0066cc;stroke-width:6;stroke-linecap:butt;stroke-linejoin:miter;stroke-miterlimit:4;stroke-opacity:1;stroke-dasharray:none" />
  <path
     d="M 360,264 C 312,360 256,328 184,376"
     id="path3056"
     style="opacity:0.5;fill:none;stroke:#0066cc;stroke-width:6;stroke-linecap:butt;stroke-linejoin:miter;stroke-miterlimit:4;stroke-opacity:1;stroke-dasharray:none" />
  <path
     d="M 360,136 C 376,160 376,232 360,264"
     id="path3060"
     style="opacity:0.5;fill:none;stroke:#0066cc;stroke-width:6;stroke-linecap:butt;stroke-linejoin:miter;stroke-miterlimit:4;stroke-opacity:1;stroke-dasharray:none" />
  <path
     d="M 184,376 C 88,440 128,544 192,560"
     id="path3054"
     style="opacity:0.5;fill:none;stroke:#0066cc;stroke-width:6;stroke-linecap:butt;stroke-linejoin:miter;stroke-miterlimit:4;stroke-opacity:1;stroke-dasharray:none" />
  <path
     d="M 704,104 C 632,32 600,152 520,168"
     id="path3062"
     style="opacity:0.5;fill:none;stroke:#0066cc;stroke-width:6;stroke-linecap:butt;stroke-linejoin:miter;stroke-miterlimit:4;stroke-opacity:1;stroke-dasharray:none" />
  <path
     d="M 520,168 C 480,176 408,168 360,264"
     id="path3066"
     style="opacity:0.5;fill:none;stroke:#0066cc;stroke-width:6;stroke-linecap:butt;stroke-linejoin:miter;stroke-miterlimit:4;stroke-opacity:1;stroke-dasharray:none" />
  <path
     d="M 520,168 C 600,184 608,232 544,264"
     id="path3068"
     style="opacity:0.5;fill:none;stroke:#0066cc;stroke-width:6;stroke-linecap:butt;stroke-linejoin:miter;stroke-miterlimit:4;stroke-opacity:1;stroke-dasharray:none" />
  <path
     d="M 544,264 C 480,296 544,336 552,384"
     id="path3070"
     style="opacity:0.5;fill:none;stroke:#0066cc;stroke-width:6;stroke-linecap:butt;stroke-linejoin:miter;stroke-miterlimit:4;stroke-opacity:1;stroke-dasharray:none" />
  <path
     d="M 552,384 C 560,432 488,480 560,528"
     id="path3072"
     style="opacity:0.5;fill:none;stroke:#0066cc;stroke-width:6;stroke-linecap:butt;stroke-linejoin:miter;stroke-miterlimit:4;stroke-opacity:1;stroke-dasharray:none" />
  <path
     d="M 544,264 C 416,328 432,400 384,408"
     id="path3074"
     style="opacity:0.5;fill:none;stroke:#0066cc;stroke-width:6;stroke-linecap:butt;stroke-linejoin:miter;stroke-miterlimit:4;stroke-opacity:1;stroke-dasharray:none" />
  <path
     d="M 384,408 C 336,416 280,312 184,376"
     id="path3076"
     style="opacity:0.5;fill:none;stroke:#0066cc;stroke-width:6;stroke-linecap:butt;stroke-linejoin:miter;stroke-miterlimit:4;stroke-opacity:1;stroke-dasharray:none" />
  <path
     d="M 360,136 C 392,184 400,248 432,280"
     id="path3078"
     style="opacity:0.5;fill:none;stroke:#0066cc;stroke-width:6;stroke-linecap:butt;stroke-linejoin:miter;stroke-miterlimit:4;stroke-opacity:1;stroke-dasharray:none" />
  <path
     d="M 432,280 C 472,320 544,336 552,384"
     id="path3080"
     style="opacity:0.5;fill:none;stroke:#0066cc;stroke-width:6;stroke-linecap:butt;stroke-linejoin:miter;stroke-miterlimit:4;stroke-opacity:1;stroke-dasharray:none" />
  <path
     d="M 360,288 C 440,328 464,480 384,560"
     id="path3082"
     style="opacity:0.5;fill:none;stroke:#0066cc;stroke-width:6;stroke-linecap:butt;stroke-linejoin:miter;stroke-miterlimit:4;stroke-opacity:1;stroke-dasharray:none" />
  <path
     d="M 336,160 C 304,192 280,248 360,288"
     id="path3084"
     style="opacity:0.5;fill:none;stroke:#0066cc;stroke-width:6;stroke-linecap:butt;stroke-linejoin:miter;stroke-miterlimit:4;stroke-opacity:1;stroke-dasharray:none" />
  <path
     d="M 520,168 C 440,184 376,120 336,160"
     id="path3086"
     style="opacity:0.5;fill:none;stroke:#0066cc;stroke-width:6;stroke-linecap:butt;stroke-linejoin:miter;stroke-miterlimit:4;stroke-opacity:1;stroke-dasharray:none" />
</svg>
