<?xml version="1.0" encoding="UTF-8" standalone="no"?>
<svg xmlns:svg="http://www.w3.org/2000/svg" xmlns="http://www.w3.org/2000/svg" version="1.1" width="800" height="600" id="svg2">
  <path d="M80 40C48 120 200 64 280 80" id="path4625" style="fill:none;opacity:0.5;stroke-dasharray:none;stroke-linecap:butt;stroke-linejoin:miter;stroke-miterlimit:4;stroke-opacity:1;stroke-width:6;stroke:#0066cc"/>
  <path d="M280 80C440 112 440 152 520 168" id="path3064" style="fill:none;opacity:0.5;stroke-dasharray:none;stroke-linecap:butt;stroke-linejoin:miter;stroke-miterlimit:4;stroke-opacity:1;stroke-width:6;stroke:#0066cc"/>
  <path d="M280 80C320 88 344 112 360 136" id="path4620" style="fill:none;opacity:0.5;stroke-dasharray:none;stroke-linecap:butt;stroke-linejoin:miter;stroke-miterlimit:4;stroke-opacity:1;stroke-width:6;stroke:#0066cc"/>
  <path d="M360 264C312 360 256 328 184 376" id="path3056" style="fill:none;opacity:0.5;stroke-dasharray:none;stroke-linecap:butt;stroke-linejoin:miter;stroke-miterlimit:4;stroke-opacity:1;stroke-width:6;stroke:#0066cc"/>
  <path d="M360 136C376 160 376 232 360 264" id="path3060" style="fill:none;opacity:0.5;stroke-dasharray:none;stroke-linecap:butt;stroke-linejoin:miter;stroke-miterlimit:4;stroke-opacity:1;stroke-width:6;stroke:#0066cc"/>
  <path d="M184 376C88 440 128 544 192 560" id="path3054" style="fill:none;opacity:0.5;stroke-dasharray:none;stroke-linecap:butt;stroke-linejoin:miter;stroke-miterlimit:4;stroke-opacity:1;stroke-width:6;stroke:#0066cc"/>
  <path d="M704 104C632 32 600 152 520 168" id="path3062" style="fill:none;opacity:0.5;stroke-dasharray:none;stroke-linecap:butt;stroke-linejoin:miter;stroke-miterlimit:4;stroke-opacity:1;stroke-width:6;stroke:#0066cc"/>
  <path d="M520 168C480 176 408 168 360 264" id="path3066" style="fill:none;opacity:0.5;stroke-dasharray:none;stroke-linecap:butt;stroke-linejoin:miter;stroke-miterlimit:4;stroke-opacity:1;stroke-width:6;stroke:#0066cc"/>
  <path d="M520 168C600 184 608 232 544 264" id="path3068" style="fill:none;opacity:0.5;stroke-dasharray:none;stroke-linecap:butt;stroke-linejoin:miter;stroke-miterlimit:4;stroke-opacity:1;stroke-width:6;stroke:#0066cc"/>
  <path d="M544 264C480 296 544 336 552 384" id="path3070" style="fill:none;opacity:0.5;stroke-dasharray:none;stroke-linecap:butt;stroke-linejoin:miter;stroke-miterlimit:4;stroke-opacity:1;stroke-width:6;stroke:#0066cc"/>
  <path d="M552 384C560 432 488 480 560 528" id="path3072" style="fill:none;opacity:0.5;stroke-dasharray:none;stroke-linecap:butt;stroke-linejoin:miter;stroke-miterlimit:4;stroke-opacity:1;stroke-width:6;stroke:#0066cc"/>
  <path d="M544 264C416 328 432 400 384 408" id="path3074" style="fill:none;opacity:0.5;stroke-dasharray:none;stroke-linecap:butt;stroke-linejoin:miter;stroke-miterlimit:4;stroke-opacity:1;stroke-width:6;stroke:#0066cc"/>
  <path d="M384 408C336 416 280 312 184 376" id="path3076" style="fill:none;opacity:0.5;stroke-dasharray:none;stroke-linecap:butt;stroke-linejoin:miter;stroke-miterlimit:4;stroke-opacity:1;stroke-width:6;stroke:#0066cc"/>
  <path d="M360 136C392 184 400 248 432 280" id="path3078" style="fill:none;opacity:0.5;stroke-dasharray:none;stroke-linecap:butt;stroke-linejoin:miter;stroke-miterlimit:4;stroke-opacity:1;stroke-width:6;stroke:#0066cc"/>
  <path d="M432 280C472 320 544 336 552 384" id="path3080" style="fill:none;opacity:0.5;stroke-dasharray:none;stroke-linecap:butt;stroke-linejoin:miter;stroke-miterlimit:4;stroke-opacity:1;stroke-width:6;stroke:#0066cc"/>
  <path d="M360 288C440 328 464 480 384 560" id="path3082" style="fill:none;opacity:0.5;stroke-dasharray:none;stroke-linecap:butt;stroke-linejoin:miter;stroke-miterlimit:4;stroke-opacity:1;stroke-width:6;stroke:#0066cc"/>
  <path d="M336 160C304 192 280 248 360 288" id="path3084" style="fill:none;opacity:0.5;stroke-dasharray:none;stroke-linecap:butt;stroke-linejoin:miter;stroke-miterlimit:4;stroke-opacity:1;stroke-width:6;stroke:#0066cc"/>
  <path d="M520 168C440 184 376 120 336 160" id="path3086" style="fill:none;opacity:0.5;stroke-dasharray:none;stroke-linecap:butt;stroke-linejoin:miter;stroke-miterlimit:4;stroke-opacity:1;stroke-width:6;stroke:#0066cc"/>
</svg>
