<svg 
  xmlns:dc="http://purl.org/dc/elements/1.1/"
  xmlns:cc="http://creativecommons.org/ns#"
  xmlns:rdf="http://www.w3.org/1999/02/22-rdf-syntax-ns#"
  xmlns:svg="http://www.w3.org/2000/svg"
  xmlns="http://www.w3.org/2000/svg"
  id="tic-tac-toe"
  version="1.1"
  viewBox="0 0 640 640">
	<defs id="defs2">
		<symbol style="display:inline" id="x-block">
			<path style="fill:#c8c4b7;fill-opacity:0" id="x-base" d="M0 0h160v160H0z"/>
			<path id="x-mark" style="fill:#ffffff" d="M33.542 43.736q4.615-1.025 13.675-7.35l7.35-5.298q4.956-3.59 7.008-4.957 2.05-1.36 3.59.86.683 1.03.17 2.22 1.538-.17 2.564 1.2L82.25 51.6q4.957-1.54 14.187-8.377 2.05-1.367 7.18-5.47 5.3-4.102 7.862-5.64.34-.342.68-.342-.17-1.53 1.02-2.39 2.05-1.54 3.59.52 2.73 3.59 6.84 11.11 4.27 7.7 6.32 10.77.34.34 3.07 4.1 2.9 3.76 4.1 5.99 1.19 2.22-1.03 3.42-.86.52-1.88.17-3.42 4.28-11.63 10.26-3.76 2.74-13.84 9.4.68 1.2 3.25 5.47l3.76 5.99q1.2 1.88 3.42 4.79 2.22 2.91 4.27 5.3.85 1.03.68 2.22 0 .17.17.35 1.37 2.05-.86 3.59-3.76 2.39-12.99 9.4-8.38 6.5-13.68 9.57-1.88 1.03-3.42-.51-.85-.34-1.37-1.02L76.43 109.9 61.9 122.034q-7.86 6.498-13.503 10.43-.34.855-1.025 1.367-1.025.69-2.05.52-1.88.35-2.906-1.19-.51-1.02-.17-2.05l-8.03-11.96q-5.81-8.2-10.598-11.79-2.053-1.54-.514-3.59 1.54-2.05 3.59-.51 5.47 4.1 11.79 12.99l7.52 11.45q5.127-3.42 12.477-9.57l15.05-12.48q-.17-1.53 1.03-2.39 1.88-1.54 3.59.52l17.44 22.73q4.45-2.73 11.8-8.2 8.38-6.49 11.8-8.71-3.25-3.59-6.16-7.86-2.9-4.27-6.15-9.74l-4.96-8.04q-1.54-2.05.69-3.41 1.71-1.37 3.25.34 9.92-6.5 13.68-9.23 8.55-6.32 11.45-10.08-.68-1.02-2.39-3.07-1.71-2.22-2.73-3.93-2.23-3.08-6.67-10.94-2.74-4.96-4.45-7.69-.17.17-.51.34l-7.35 5.816-7.35 5.47q-9.06 6.668-14.7 8.72.17 1.54-1.2 2.395-2.22 1.37-3.59-.854-2.91-4.62-8.55-12.824l-8.022-11.8q-.513-.855-.34-1.88l-13 9.225q-7.52 5.3-12.137 7.18 0 .17.17.34 2.396 3.25 9.92 14.7 5.98 9.06 10.084 13.67 1.71 1.88-.17 3.59t-3.59-.17l-.86-.86q1.027 1.88-.683 3.25l-25.637 19.1q-2.05 1.536-3.59-.515-1.54-2.05.51-3.59L49.78 78.1q1.54-1.197 3.08 0-3.42-4.102-9.06-12.65-7.35-11.28-9.74-14.357-.853-1.026-.34-2.223-1.54-.342-2.05-1.88-.17-1.026.34-1.88.514-1.026 1.54-1.368z"/>
		</symbol>
		<symbol style="display:inline" id="o-block">
			<path style="opacity:0;fill:#c8c4b7" id="o-base" d="M0 0h160v160H0z"/>
			<path style="fill:#ffffff" id="o-mark" d="M52.56 36.848c-8.918 5.62-15.456 13.136-19.61 22.544-4.154 9.287-5.5 18.756-4.032 28.41 1.588 10.385 6.17 19.244 13.746 26.576 7.576 7.33 17.9 11.67 30.975 13.013 10.26 1.1 18.51.49 24.74-1.83 9.77-3.66 17.53-9.04 23.27-16.13 5.74-7.21 9.04-14.78 9.89-22.72.98-8.06-.55-16.25-4.58-24.56-3.91-8.43-10.14-15.58-18.7-21.44-14.54-10.02-33.12-11.3-55.72-3.85zm1.834-6.415c22.728-6.598 41.79-4.643 57.185 5.865 7.45 5.132 13.38 11.242 17.77 18.33 4.4 6.964 6.9 14.173 7.51 21.626.73 7.332-.06 14.54-2.38 21.628-2.2 6.965-6.3 13.38-12.28 19.245-5.99 5.865-13.32 10.386-22 13.563-6.97 2.566-16.07 3.3-27.31 2.2-14.18-1.467-25.54-6.293-34.09-14.48-8.43-8.187-13.57-18.084-15.4-29.692-1.23-8.798-.43-17.596 2.38-26.393 2.93-8.798 7.82-16.435 14.66-22.91-.25-.245-.43-.49-.55-.734-.25-.73-.25-1.46 0-2.19.36-.73.85-1.22 1.46-1.46 2.93-1.22 5.86-2.32 8.8-3.3l2.01-1.1c.73-.49 1.47-.55 2.2-.18z"/>
		</symbol>
	</defs><g style="display:inline" id="canvas">
		<path id="board" style="fill:#c8c4b7;fill-opacity:1;stroke:#d38d5f;stroke-width:32;stroke-linecap:butt;stroke-linejoin:miter;stroke-miterlimit:4" d="M16 16h608v608H16z"/>
		<g style="display:inline" id="block-container"/>
		<path id="grid" d="M232 80v152H80v16h152v144H80v16h152v152h16V408h144v152h16V408h152v-16H408V248h152v-16H408V80h-16v152H248V80zm16 168h144v144H248z" style="clip-rule:nonzero;fill:#ffffff;fill-rule:evenodd"/>
		<path id="hit-area" d="M80 80h480v480H80z" style="opacity:0;fill:#000000"/>
	</g><g style="display:none" id="reset-button">
		<path style="opacity:0.75;fill:#88aa00" d="M0 0h640v640H0z" id="rect8467"/>
		<path id="path8658" style="fill:#445500" d="M516.285 208.423v18.928q0 10.43-1.048 15.53-1.05 5.04-4.485 9.98-3.436 4.88-8.853 8-5.36 3.05-12.35 4.44-7.81 1.55-13.22.94-5.42-.67-8.45-3.5-2.97-2.9-4.25-7.54-1.28-4.69-1.28-14.53v-19.81q0-10.77 2.33-17.29t8.38-11.39q6.05-4.87 15.49-6.75 7.92-1.57 13.57-.31 5.7 1.2 8.79 4.37 3.08 3.18 4.19 6.97 1.16 3.79 1.16 12zm-23.53-1.144q0-5.95-.64-7.33-.64-1.45-2.738-1.03-2.097.41-2.795 2.13-.7 1.65-.7 7.59v34.88q0 5.47.7 7.02.698 1.49 2.737 1.08 2.09-.42 2.73-2.06.7-1.65.7-6.66zm-34.595-31.45v18.87l-14.56 2.9v75.42l-24.52 4.88v-75.42l-14.506 2.88v-18.87zm-77.467 32.41l-9.552 32.71 12.41 44.01-22.65 4.5-7.33-32.21v33.66l-23.53 4.68V201.3l23.53-4.68v39.605l7.34-24.06zm-57.603 40.64l-22.19 4.41v-8.91q0-4.66-.754-6.14-.758-1.54-2.797-1.13-2.04.4-2.74 2-.7 1.59-.7 6.66v36.46q0 4.13 1.05 6.02 1.05 1.83 3.09 1.42 2.38-.48 3.2-2.8.87-2.33.87-8.33v-9.21l20.96-4.17q-.06 9.27-.7 14.06-.58 4.71-3.9 10.27-3.27 5.48-8.57 9.04-5.3 3.5-13.11 5.05-9.96 1.98-15.79-.24-5.82-2.28-8.27-7.91-2.39-5.7-2.39-17V256.5q0-9.843 1.98-15.246 1.98-5.4 8.44-10.59 6.46-5.243 15.72-7.09 9.2-1.83 15.72.78 6.52 2.6 8.67 8.11t2.15 16.4zm-60.39-34.17V227l-24.23 4.818v-12.29zm0 17V309l-24.23 4.82v-77.28zm-32.62-10.51v94.3l-24.23 4.82v-94.3zm-32.44 47.57l-24.52 4.87v-16.42q0-7.17-.815-8.75-.758-1.66-3.437-1.13-3.024.6-3.84 2.92-.815 2.31-.815 9.48v43.8q0 6.87.815 8.8.815 1.93 3.67 1.36 2.736-.54 3.55-2.8.874-2.27.874-10.02v-11.82l24.52-4.88v3.67q0 14.62-2.097 21.15-2.038 6.52-9.144 12.53-7.04 6-17.41 8.06-10.78 2.14-17.76-.37-6.99-2.51-9.26-8.93-2.27-6.48-2.27-20.34V272.4q0-10.19.7-15.4.7-5.26 4.14-10.66 3.5-5.41 9.61-9.31 6.18-3.963 14.16-5.55 10.83-2.155 17.88.637 7.05 2.79 9.26 8.64 2.21 5.795 2.21 19.016zm324.884 2.42v25.94l-20.02 3.98v103.71l-33.715 6.7v-103.7l-19.94 3.96v-25.94zm-133.896 26.64l56.217-11.19v25.94l-22.503 4.47v24.58l21.06-4.19v24.66l-21.06 4.19v28.51l24.745-4.93v25.95l-58.46 11.63zm-13.455 41.91l-31.312 6.23v-9.61q0-6.73-1.2-8.33-1.2-1.61-4-1.05-3.04.6-4.64 3.4-1.52 2.78-1.52 7.83 0 6.48 1.76 9.42 1.68 2.95 9.53 6.03 22.51 8.89 28.35 16.3 5.85 7.4 5.85 26.46 0 13.85-3.28 21.07-3.2 7.2-12.49 13.54-9.29 6.25-21.62 8.7-13.53 2.69-23.14-.52-9.53-3.23-12.49-10.57-2.97-7.33-2.97-21.91v-8.49l31.31-6.23v15.78q0 7.29 1.28 9.11 1.37 1.81 4.73 1.14 3.37-.67 4.97-3.63 1.69-2.98 1.69-8.19 0-11.45-3.12-14.36-3.2-2.89-15.77-8.64-12.57-5.83-16.66-8.78-4.08-2.95-6.8-9.06-2.64-6.12-2.64-16.45 0-14.9 3.77-22.53 3.845-7.66 12.33-13.19 8.49-5.61 20.5-8 13.138-2.61 22.347-.2 9.29 2.39 12.25 8.29 3.04 5.8 3.04 21.255zM235.51 328.29l56.22-11.183v25.947l-22.504 4.476v24.586l21.062-4.19v24.666l-21.062 4.19v28.51l24.746-4.924v25.947l-58.46 11.63zm-88.41 17.586l23.865-4.747q23.865-4.75 32.273-4.58 8.49.15 13.775 6.71 5.365 6.46 5.365 23.03 0 15.13-3.764 21.09-3.764 5.95-14.815 9.19 10.01.49 13.45 3.97 3.44 3.48 4.24 6.84.88 3.27.88 18.96v34.19l-31.31 6.23v-43.08q0-10.41-1.69-12.56-1.6-2.17-8.57-.78v58.46l-33.71 6.71zm33.715 15.477v28.83q5.686-1.13 7.928-3.098 2.323-2.064 2.323-10.633v-7.128q0-6.166-2.243-7.642-2.162-1.492-8.008-.33z"/>
		<path d="M504.593 202.74v18.93q0 10.424-1.048 15.525-1.05 5.043-4.485 9.978-3.436 4.877-8.853 7.993-5.358 3.046-12.347 4.436-7.805 1.552-13.22.94-5.418-.67-8.446-3.503-2.97-2.91-4.252-7.55-1.28-4.7-1.28-14.54v-19.8q0-10.78 2.328-17.3 2.33-6.52 8.387-11.4 6.057-4.88 15.493-6.75 7.92-1.58 13.57-.31 5.708 1.19 8.795 4.36 3.086 3.17 4.193 6.97 1.165 3.78 1.165 12zm-23.53-1.144q0-5.94-.64-7.327-.64-1.45-2.738-1.03-2.097.41-2.796 2.13-.7 1.65-.7 7.59v34.88q0 5.47.7 7.02.69 1.49 2.73 1.08 2.09-.42 2.73-2.06.7-1.66.7-6.66zm-34.596-31.44v18.87l-14.56 2.895v75.43l-24.52 4.88V196.8l-14.502 2.883v-18.87zm-77.462 32.413l-9.55 32.71 12.404 44.01-22.66 4.5-7.34-32.21v33.66l-23.53 4.68v-94.29l23.53-4.68v39.6l7.34-24.06zm-57.6 40.63l-22.19 4.41v-8.91q0-4.66-.758-6.14-.757-1.54-2.796-1.14-2.03.4-2.73 2-.7 1.59-.7 6.66v36.46q0 4.13 1.05 6.02 1.05 1.83 3.09 1.42 2.39-.48 3.21-2.79.88-2.33.88-8.33v-9.2l20.97-4.17q-.05 9.27-.7 14.06-.58 4.71-3.9 10.27-3.26 5.48-8.56 9.04-5.3 3.5-13.1 5.05-9.96 1.98-15.78-.24-5.82-2.28-8.27-7.91-2.38-5.7-2.38-17v-21.95q0-9.85 1.98-15.25t8.44-10.59q6.47-5.25 15.73-7.09 9.2-1.83 15.73.77 6.53 2.6 8.68 8.11 2.16 5.51 2.16 16.4zm-60.398-34.17v12.29l-24.23 4.82v-12.29zm0 17v77.28l-24.23 4.82v-77.28zm-32.615-10.52v94.29l-24.23 4.82v-94.29zm-32.44 47.57l-24.52 4.88v-16.42q0-7.17-.816-8.75-.758-1.66-3.437-1.12-3.03.6-3.85 2.91-.82 2.31-.82 9.48v43.8q0 6.87.81 8.8.81 1.93 3.67 1.36 2.73-.54 3.55-2.8.87-2.27.87-10.02v-11.8l24.52-4.88v3.67q0 14.62-2.1 21.15-2.04 6.52-9.14 12.53-7.05 6-17.42 8.07-10.78 2.15-17.77-.37-6.99-2.51-9.26-8.93-2.28-6.48-2.28-20.34v-27.55q0-10.19.7-15.39.69-5.26 4.13-10.66 3.5-5.41 9.61-9.31 6.18-3.96 14.16-5.55 10.83-2.15 17.88.64 7.04 2.79 9.26 8.64 2.21 5.79 2.21 19.01zm324.883 2.42v25.95l-20.02 3.98v103.71l-33.715 6.71v-103.7l-19.94 3.96v-25.94zm-133.898 26.64l56.218-11.18v25.94l-22.503 4.47v24.58l21.06-4.19v24.66l-21.06 4.19v28.51l24.745-4.92v25.95l-58.46 11.62zm-13.454 41.91l-31.312 6.22v-9.61q0-6.73-1.2-8.33-1.2-1.6-4-1.05-3.04.6-4.64 3.4-1.52 2.79-1.52 7.83 0 6.49 1.76 9.42 1.69 2.95 9.53 6.03 22.51 8.9 28.35 16.3 5.85 7.41 5.85 26.47 0 13.85-3.28 21.07-3.2 7.2-12.49 13.53-9.29 6.25-21.62 8.7-13.53 2.69-23.14-.52-9.53-3.23-12.49-10.57-2.96-7.34-2.96-21.92v-8.49l31.31-6.23v15.78q0 7.29 1.28 9.117 1.37 1.81 4.73 1.142 3.37-.67 4.97-3.63 1.69-2.98 1.69-8.18 0-11.45-3.12-14.357-3.2-2.89-15.77-8.634-12.57-5.83-16.65-8.78-4.08-2.95-6.8-9.057-2.644-6.122-2.644-16.452 0-14.896 3.76-22.53 3.846-7.65 12.33-13.185 8.49-5.61 20.5-8 13.14-2.61 22.35-.2 9.29 2.394 12.25 8.29 3.04 5.8 3.04 21.256zM223.82 322.6l56.21-11.182v25.95l-22.504 4.474v24.585l21.062-4.19v24.667l-21.063 4.19v28.51l24.748-4.923v25.95l-58.46 11.63zm-88.42 17.59l23.865-4.747q23.864-4.747 32.273-4.577 8.49.153 13.775 6.71 5.365 6.46 5.365 23.037 0 15.136-3.764 21.09-3.765 5.954-14.816 9.193 10.01.492 13.454 3.97 3.442 3.48 4.243 6.845.88 3.27.88 18.97v34.2l-31.31 6.23v-43.08q0-10.41-1.683-12.56-1.6-2.16-8.568-.77v58.46l-33.714 6.7zm33.715 15.48v28.83q5.686-1.13 7.93-3.1 2.32-2.065 2.32-10.63v-7.13q0-6.168-2.242-7.64-2.164-1.496-8.01-.33z" style="fill:#ffffff" id="path8497"/>
	</g>
</svg>