<svg xmlns:svg="http://www.w3.org/2000/svg" xmlns="http://www.w3.org/2000/svg" height="48" width="400" id="slashAnim" version="1.1">
  <g id="frame_0">
  </g>
  <g id="frame_1">
    <path d="M146.75 37.45C134.2 37.216667 121.65 36.983333 109.1 36.75 89.216667 35.666667 69.333333 34.583333 49.45 33.5 59.133333 33.41667 68.816667 33.333333 78.5 33.25 94.95 32.616667 111.4 31.983333 127.85 31.35 137.71667 32.316667 147.58333 33.283333 157.45 34.25 153.88333 35.316667 150.31667 36.383333 146.75 37.45Z" style="fill:#0bafdf;"/>
    <path d="M150 34.25C154.86667 34.65 159.73333 35.05 164.6 35.45 157.68333 35.46667 150.76667 35.48333 143.85 35.5 127.85 35.4 113.96667 35.066667 102.2 34.5 114.11667 33.983333 126.03333 33.466667 137.95 32.95 140.3 32.816667 142.65 32.683333 145 32.55 146.16667 33.316667 147.83333 33.883333 150 34.25Z" style="fill:#ffffff;"/>
  </g>
  <g id="frame_2">
    <path d="M146.75 37.45C134.81667 37.41667 122.26667 37.183333 109.1 36.75 89.216667 35.666667 69.333333 34.583333 49.45 33.5 55.28333 33.666667 64.96667 33.58333 78.5 33.25 94.95 32.616667 111.4 31.983333 127.85 31.35 137.71667 32.316667 147.58333 33.283333 157.45 34.25 154.51667 34.85 150.95 35.916667 146.75 37.45Z" style="fill:#0bafdf;"/>
    <path d="M150 34.25C154.86667 34.65 159.73333 35.05 164.6 35.45 157.68333 35.466667 150.76667 35.483333 143.85 35.5 127.85 35.4 113.96667 35.066667 102.2 34.5 114.11667 33.983333 126.03333 33.466667 137.95 32.95 140.3 32.816667 142.65 32.683333 145 32.55 146.16667 33.316667 147.83333 33.883333 150 34.25Z" style="fill:#ffffff;"/>
  </g>
  <g id="frame_3">
    <path d="M330.9 12.5C224.86134 45.540587 147.0961 38.002093 49.45 33.5 137.06681 31.886439 245.62896 28.359639 327.4 2.5 331.56667 2.8333333 335.73333 3.1666667 339.9 3.5 336.9 6.5 333.9 9.5 330.9 12.5Z" style="fill:#0bafdf;"/>
    <path d="M325.8 12.3C243.2247 33.830249 203.6182 37.221193 100.78579 34.146447 185.43344 30.736079 254.03205 27.83053 323.35 5.35 326.23333 5.5833333 329.11667 5.8166667 332 6.05 329.93333 8.1333333 327.86667 10.216667 325.8 12.3Z" style="fill:#ffffff;"/>
  </g>
  <g id="frame_4">
    <path d="M50.05 40.5C60.866667 38.916667 71.683333 37.333333 82.5 35.75 132.26667 28.516667 169.38333 23.433333 193.85 20.5 198.21667 20 202.58333 19.5 206.95 19 230.28333 16.5 266.78333 14.416667 316.45 12.75 318.96667 12.666667 321.48333 12.583333 324 12.5 345.86667 11.8 365.85 11.3 383.95 11 383.68333 11.033333 383.41667 11.066667 383.15 11.1 359.06667 14.65 334.98333 18.2 310.9 21.75 309.28333 21.983333 307.66667 22.216667 306.05 22.45 252.15 30.183333 220.18333 34.316667 210.15 34.85 207.11667 35.016667 204.08333 35.183333 201.05 35.35 134.03333 39.566667 67.016667 43.783333 0 48 16.683333 45.5 33.366667 43 50.05 40.5Z" style="fill-opacity:0.44705882;fill:#ccff00;"/>
    <path d="M330.9 12.5C224.86134 45.540587 147.0961 38.002093 49.45 33.5 137.06681 31.886439 245.62896 28.359639 327.4 2.5 331.56667 2.8333333 335.73333 3.1666667 339.9 3.5 336.9 6.5 333.9 9.5 330.9 12.5Z" style="fill:#0bafdf;"/>
    <path d="M325.8 12.3C243.2247 33.830249 203.6182 37.221193 100.78579 34.146447 185.43344 30.736079 254.03205 27.83053 323.35 5.35 326.23333 5.5833333 329.11667 5.8166667 332 6.05 329.93333 8.1333333 327.86667 10.216667 325.8 12.3Z" style="fill:#ffffff;"/>
  </g>
  <g id="frame_5">
    <path d="M383.95 11C248.72688 29.734301 152.98109 35.808147 15.25 46.125 123.65439 30.310045 244.10367 16.338506 383.95 11Z" style="fill-opacity:0.44705882;fill:#ccff00;"/>
    <path d="M330.9 12.5C246.01151 38.539038 180.70721 36.049678 94.999131 32.432704 172.67088 30.079265 259.32066 24.029714 327.4 2.5 331.56667 2.8333333 335.73333 3.1666667 339.9 3.5 336.9 6.5 333.9 9.5 330.9 12.5Z" style="fill:#0bafdf;"/>
    <path d="M325.8 12.3C243.2247 33.83025 195.52073 33.453423 143.26156 32.512567 209.91226 27.437983 252.26428 26.062763 323.35 5.35 326.23333 5.5833333 329.11667 5.8166667 332 6.05 329.93333 8.1333333 327.86667 10.216667 325.8 12.3Z" style="fill:#ffffff;"/>
  </g>
  <g id="frame_6">
    <path d="M383.95 11C263.84128 31.015932 147.32123 34.898914 0 48 128.91049 29.710171 257.5387 10.681652 383.95 11Z" style="fill-opacity:0.44705882;fill:#ccff00;"/>
    <path d="M330.9 12.5C291.39858 26.071749 252.66889 34.323224 159.72523 29.308063 217.45953 25.34832 279.341 17.681905 327.4 2.5 331.56667 2.8333333 335.73333 3.1666667 339.9 3.5 336.9 6.5 333.9 9.5 330.9 12.5Z" style="fill:#0bafdf;"/>
    <path d="M325.8 12.3C274.17648 25.708036 241.06607 29.6967 197.16525 28.309136 236.67451 24.877156 277.98111 20.583216 323.35 5.35 326.23333 5.5833333 329.11667 5.8166667 332 6.05 329.93333 8.1333333 327.86667 10.216667 325.8 12.3Z" style="fill:#ffffff;"/>
  </g>
  <g id="frame_7">
    <path d="M373.825 10.875C234.00568 30.228019 154.39531 33.244885 28.86181 44.00368 133.73067 31.10554 230.26636 17.892885 373.825 10.875Z" style="fill-opacity:0.44705882;fill:#ccff00;"/>
    <path d="M339.9 3.5C336.9 6.5 333.9 9.5 330.9 12.5 327.26667 13.933333 322.38333 15.516667 316.25 17.25 315.21667 17.333333 314.18333 17.416667 313.15 17.5 297.43333 17.5 281.71667 17.5 266 17.5 272.95 16.083333 279.9 14.666667 286.85 13.25 304.21667 9.4166667 317.73333 5.8333333 327.4 2.5 331.56667 2.8333333 335.73333 3.1666667 339.9 3.5Z" style="fill:#0bafdf;"/>
    <path d="M332 6.05C330.05 8.0333333 328.1 10.016667 326.15 12 319.43333 13.25 312.71667 14.5 306 15.75 305.26667 15.833333 304.53333 15.916667 303.8 16 297.46667 16 291.13333 16 284.8 16 288.73333 15.066667 292.66667 14.133333 296.6 13.2 308.2 10.3 317.11667 7.6833333 323.35 5.35 326.23333 5.5833333 329.11667 5.8166667 332 6.05Z" style="fill:#ffffff;"/>
  </g>
  <g id="frame_8">
    <path d="M366.13521 11.40533C222.16164 29.344136 159.53763 30.611002 40.98681 42.25368 141.23067 30.10554 205.6944 23.461351 366.13521 11.40533Z" style="fill-opacity:0.44705882;fill:#ccff00;"/>
  </g>
  <g id="frame_9">
    <path d="M356.13521 12.40533C210.16164 27.094136 180.88472 29.946788 63.43745 39.778806 161.71789 27.814992 192.45816 25.154804 356.13521 12.40533Z" style="fill-opacity:0.44705882;fill:#ccff00;"/>
  </g>
  <g id="frame_10"></g>

</svg>
