<svg xmlns:svg="http://www.w3.org/2000/svg" xmlns="http://www.w3.org/2000/svg" id="svg14082" height="65" viewBox="0 0 100 65" width="100" version="1.1">
    <path style="fill:#9e7758" d="M 100,32.506 100,40.006 50,64.956 50,57.456 100,32.506 Z" id="path8551" />
    <path style="fill:#bb8d5d" d="M 50,64.956 0,40.006 0,32.506 6.25,35.656 12.5,38.756 37.5,51.256 43.75,54.356 50,57.456 50,64.956 Z" id="path8553" />
    <path style="fill:#7da343" d="M 0,32.506 0,25.006 6.25,28.156 6.25,35.656 0,32.506 Z" id="path8092" />
    <path style="fill:#7da343" d="M 43.75,54.356 43.75,46.906 50,50.006 50,57.456 43.75,54.356 Z" id="path8555" />
    <path style="fill:#8bb54a" d="M 0,25.006 50,0.006 100,25.006 50,50.006 43.75,46.906 87.5,25.056 50,6.306 C 35.433,13.566 20.85,20.856 6.25,28.156 L 0,25.006 Z" id="path8557" />
    <path style="fill:#74973e" d="M 100,25.006 100,32.506 50,57.456 50,50.006 100,25.006 Z" id="path8559" />
    <path style="fill:#d9d3bf" d="M 43.75,46.906 37.5,43.756 75,25.006 50,12.506 12.5,31.256 6.25,28.156 C 20.85,20.856 35.433,13.566 50,6.306 L 87.5,25.056 43.75,46.906 Z" id="path8561" />
    <path style="fill:#bcb38f" d="M 37.5,43.756 43.75,46.906 43.75,54.356 37.5,51.256 37.5,43.756 Z" id="path8082" />
    <path style="fill:#bcb38f" d="M 6.25,28.156 12.5,31.256 12.5,38.756 6.25,35.656 6.25,28.156 Z" id="path8563" />
    <path style="fill:#595959" d="M 37.5,43.756 37.5,51.256 12.5,38.756 12.5,31.256 37.5,43.756 Z" id="path8565" />
    <path style="fill:#6a6a6a" d="M 12.5,31.256 50,12.506 75,25.006 37.5,43.756 12.5,31.256 Z" id="path8567" />
</svg>