<?xml version="1.0" encoding="UTF-8" standalone="no"?>
<svg
   xmlns:dc="http://purl.org/dc/elements/1.1/"
   xmlns:cc="http://creativecommons.org/ns#"
   xmlns:rdf="http://www.w3.org/1999/02/22-rdf-syntax-ns#"
   xmlns:svg="http://www.w3.org/2000/svg"
   xmlns="http://www.w3.org/2000/svg"
   xmlns:xlink="http://www.w3.org/1999/xlink"
   enable-background="new"
   version="1.1"
   id="svg2"
   viewBox="0 0 744.09448819 1052.3622047"
   height="297mm"
   width="210mm">
  <defs
     id="defs4">
    <symbol
       id="k-glyph">
      <path
         style="fill:#000000;fill-rule:evenodd;stroke:none;stroke-width:1px;stroke-linecap:butt;stroke-linejoin:miter;stroke-opacity:1"
         d="m 1196.8809,960.7168 -41.8809,75.9141 0,-77.72856 c -3.0274,-2.7738 -6.2012,2.57264 -6.7852,4.97852 l 0,150.62504 6.7852,-4.2871 0,-53.7754 c 7.7201,-17.0653 16.1106,-33.5647 24.7422,-49.7481 l 19.4746,99.4414 9.5488,-5.8691 c -6.6816,-35.5021 -13.905,-70.5716 -23.6035,-103.66018 6.6479,-12.24421 13.3876,-24.32933 20.041,-36.34375 3.3147,-6.15475 -5.959,-2.55174 -8.3222,0.45313 z"
         id="path4312" />
    </symbol>
    <symbol
       id="clubs-glyph">
      <path
         id="path7355"
         style="fill:#000000;fill-rule:evenodd;stroke:none;stroke-width:1px;stroke-linecap:butt;stroke-linejoin:miter;stroke-opacity:1"
         d="m 1260.7715,981.4707 c -3.9261,0.4316 -7.9197,3.85895 -9.0625,7.92188 2.816,-2.77925 6.1594,-6.03648 9.0625,-7.92188 z m 14.9902,19.0195 c -1.1136,1.8603 -0.5974,2.0743 -1.4277,4.3516 1.9232,0.3904 4.4175,-3.359 1.4277,-4.3516 z m 4.8321,4.2832 c -2.7209,2.887 -4.8846,3.3699 -6.6524,6.3614 2.9946,-0.2346 6.1599,-3.5385 6.6524,-6.3614 z m 22.1874,45.8926 c -3.3903,0.7441 -5.7327,2.7448 -6.6523,6.3613 2.9946,-0.2346 6.1599,-3.5384 6.6523,-6.3613 z m -39.1269,4.0996 c -3.3904,0.7441 -5.6061,1.9856 -7.4727,4.9707 2.9946,-0.6765 5.907,-2.4635 7.4727,-4.9707 z m -31.1406,21.4571 c 1.9679,1.1498 7.7651,3.0251 9.1504,0.6933 -3.569,0.2084 -5.2397,-0.4259 -9.1504,-0.6933 z m 34.2176,4.4238 c -15.8291,7.4037 -32.897,5.8863 -42.2344,-1.622 -0.5461,-0.4391 0.6043,-2.361 0.1552,-2.8971 -0.4188,-0.4999 -2.3986,0.3367 -2.7661,-0.2018 -11.213,-16.4319 -4.5956,-51.8953 27.4202,-49.0697 -38.8165,-67.19564 87.2509,-68.52581 47.3572,3.936 49.602,-7.5747 43.7801,77.9615 -16.5476,51.6223 0.1611,14.3743 12.2276,16.0496 21.9708,20.2031 l -57.3261,1.2627 c 8.6509,-4.8856 21.3205,-1.1157 21.9708,-23.2335 z" />
    </symbol>
  </defs>
  <metadata
     id="metadata7">
    <rdf:RDF>
      <cc:Work
         rdf:about="">
        <dc:format>image/svg+xml</dc:format>
        <dc:type
           rdf:resource="http://purl.org/dc/dcmitype/StillImage" />
        <dc:title></dc:title>
      </cc:Work>
    </rdf:RDF>
  </metadata>
  <g
     style="display:inline;opacity:1"
     id="layer9">
    <rect
       ry="12"
       rx="12"
       y="175.64626"
       x="163.37538"
       height="528"
       width="340"
       id="rect4309"
       style="opacity:1;fill:#eeeeee;fill-opacity:1;stroke:none;stroke-width:0.5;stroke-linejoin:round;stroke-miterlimit:4;stroke-dasharray:none;stroke-opacity:1" />
  </g>
  <g
     id="layer10" />
  <g
     style="display:inline;opacity:1"
     id="layer3">
    <g
       style="display:inline;opacity:1"
       id="layer4">
      <g
         transform="translate(-957.6246,-767.71593)"
         style="display:inline;opacity:1;fill:#ff0000"
         id="g7468">
        <path
           d="m 1382.3214,1241.2015 c 3.4319,4.2804 2.877,8.6879 1.1607,15.8482 -0.046,-5.3189 -1.0174,-10.9732 -1.1607,-15.8482 z m 2.5893,-47.9464 c 3.3311,10.7554 3.6317,22.2536 4.0179,28.6607 -2.1443,-7.0142 -2.7521,-16.2295 -4.0179,-28.6607 z m -10.9821,-32.4108 1.9643,-0.089 c 0,0 -0.1786,6.6964 0,8.6607 0.1785,1.9643 -2.6786,-4.4643 -1.9643,-8.5715 z m 12.7583,-1.2797 1.7678,-2.6516 0.6313,25.3801 c 0,0 -3.4092,-9.849 -2.3991,-22.7285 z m -19.544,-8.631 c 0.8342,16.1929 2.0556,32.2439 2.426,56.324 0,0 7.0741,4.4724 7.7398,12.305 0.6101,7.178 -0.9017,24.8332 1.7246,35.3288 3.4874,16.2943 -6.0197,28.0526 -14.1226,37.1137 0,0 13.3839,6.6742 16.9347,12.1556 3.5508,5.4815 8.3083,6.7546 13.0426,9.8464 0,0 -0.3248,-19.0993 0.6377,-25.4145 0.9625,-6.3152 3.283,-12.7341 3.283,-12.7341 l 0.6371,-26.0185 -2.026,-0.1192 -4.5457,24.3699 c 0,0 0.3788,-12.0978 -0.3788,-16.5412 -0.7576,-4.4435 -1.7702,-10.5898 0.7576,-15.2786 7.918,-14.687 4.1372,-31.4889 3.283,-45.4569 -0.3181,-8.2098 1.1737,-26.8559 2.0203,-39.6485 l -3.7881,2.778 -0.028,-10.8233 z"
           style="fill:#c6c6c6;fill-opacity:1;fill-rule:evenodd;stroke:none;stroke-width:1px;stroke-linecap:butt;stroke-linejoin:miter;stroke-opacity:1"
           id="path7466" />
      </g>
      <g
         transform="translate(-957.6246,-767.71593)"
         id="g11534">
        <path
           d="m 1197.2833,1246.3115 -0.5051,-19.9505 c -1.26,7.9444 -2.1774,15.6146 -1.7677,22.2233 z m 17.6274,51.6757 6.7858,-4.7321 c 0,0 -1.0775,2.8565 -1.9644,3.5714 -1.052,0.8479 -4.8214,1.1607 -4.8214,1.1607 z m 2.9464,-27.1429 1.0715,12.3215 -3.75,-11.25 z m -24.3749,-111.7857 c 0.5047,-6.8497 8.5436,-10.5001 13.1249,-11.1607 -0.2276,3.2538 -0.5832,4.7119 0.3572,7.7679 l 3.0357,-0.625 c 1.441,15.3109 2.9074,30.5526 5.7143,42.1428 -3.6929,26.9566 -1.2107,38.0592 2.2666,43.46 0.4609,0.716 1.8322,24.9925 2.3161,25.5317 0.5474,0.61 0.2089,-22.5387 0.7527,-22.0903 1.9702,1.6241 4.6646,3.9915 4.6646,3.9915 0.7326,19.5914 2.0673,36.4733 4.1464,50.0053 -18.2199,12.3165 -31.853,8.6022 -43.4321,30.8875 l -1.3141,-113.1322 7.7426,5.2751 0.012,4.9459 6.0597,-7.2673 c 0,0 -3.2224,-22.5295 -3.5715,-32.5 -0.3491,-9.9705 1.0715,-27.1429 1.0715,-27.1429 z"
           style="fill:#c6c6c6;fill-opacity:1;fill-rule:evenodd;stroke:none;stroke-width:1px;stroke-linecap:butt;stroke-linejoin:miter;stroke-opacity:1"
           id="path11532" />
      </g>
      <g
         transform="translate(-957.6246,-767.71593)"
         id="g11548">
        <path
           d="m 1261.25,1202.1836 c 6.9658,-2.0116 16.5404,-5.7522 22.8571,-13.0357 l 16.0715,15.3572 c 2.7169,9.2192 5.4128,18.5499 11.25,21.0714 -6.5813,7.0075 -11.5221,-7.231 -20.1552,-2.6398 0,0 3.1354,11.6845 -5.3805,12.8183 -8.516,1.1339 -12.2141,-10.441 -18.5715,-16.7857 6.7331,-5.2566 20.6463,-8.3401 16.6965,-16.1607 l -24.7322,8.125 z m 11.2897,34.2789 c 7.4173,7.4842 14.6891,6.1053 18.0029,0.5814 1.0846,-1.808 3.7296,12.8707 3.1262,15.1416 -0.1201,0.452 5.9375,-0.8706 5.8941,-5.3677 -0.048,-5.0176 -5.8105,-14.0944 -5.5518,-14.5394 1.1302,-1.9445 2.0203,-3.9333 2.646,-5.6649 9.5618,10.8366 7.5086,11.9714 10.2277,19.0666 -11.9031,15.7542 -12.8252,25.0388 -17.2988,38.007 -0.1161,-9.8994 -3.7492,-25.0471 -17.5514,-37.6281 z m 27.1032,54.739 c 2.0522,-5.8956 4.01,-11.98 5.3571,-19.2858 2.4651,4.2514 4.2033,10.2807 5.8929,16.4286 -3.5663,2.8326 -6.9867,1.3467 -11.25,2.8572 z m 63.5633,-13.8466 c -19.668,22.1767 -55.5769,40.5129 -80.8396,56.5695 -4.9943,2.8776 -9.9952,5.7286 -16.962,0.7159 l -9.7984,-14.0665 -10.3186,-2.091 -6.3695,-34.2177 1.3721,-24.6521 -5.1817,-1.6329 c 0,0 0.6603,-8.9076 9.1286,-8.2748 8.4683,0.6328 11.3268,0.3202 14.5129,-0.3788 4.4976,-1.8985 6.5491,-2.5367 9.8214,1.25 l -3.3928,10.3571 -9.6429,2.5 -6.0714,5.8929 -2.3214,0 -2.3215,-5.1786 c 0,0 -3.7337,18.4748 5.6332,21.0231 1.5097,7.3698 22.5811,1.4769 27.7597,-0.4874 -1.6072,6.0715 -12.6786,12.5 -18.75,11.6072 -6.0714,-0.8929 -6.0714,-2.6786 -6.0714,-2.6786 0,0 -5.3572,-0.5357 -5.7143,1.25 -0.3572,1.7857 1.6071,1.7857 0.8928,4.6429 -0.7143,2.8571 -3.2143,-0.089 -3.2143,-0.089 l -1.9642,0.089 2.2321,11.1608 3.5714,3.75 c 0,0 -2.4107,-2.7679 0.089,-4.5536 2.5,-1.7857 13.9286,1.9643 22.3214,-1.25 8.3929,-3.2143 9.6429,-4.8214 9.6429,-4.8214 l 2.8571,1.4285 c 0,0 0.5358,-15.1785 1.6072,-17.5 1.0714,-2.3214 -3.2143,1.9643 -3.2143,1.9643 0,0 0.069,-18.0358 -10.8919,-35.171 -0.1476,-0.2308 -0.3895,-3.9494 -2.4673,-7.5565 -1.1223,-1.9484 -2.4956,-2.0756 -5.8979,-4.5791 -3.2953,-2.4248 -5.1732,-0.6329 -5.1732,-0.6329 0.6451,-12.0808 -2.1773,-11.8211 0.7265,-24.2216 0.4297,-3.5813 -2.253,-1.4257 -3.7968,-3.0119 -1.6575,-1.703 -2.2477,-7.0785 -3.7015,-9.0774 0,0 -13.0865,3.3206 -15.4607,4.086 -1.7032,0.5491 -8.4569,-6.4537 -8.4569,-6.4537 17.6727,0.4342 42.1447,-13.4055 53.99,-22.5915 53.259,5.5689 108.734,44.876 81.8362,96.8808 z"
           style="fill:#c6c6c6;fill-opacity:1;fill-rule:evenodd;stroke:none;stroke-width:1px;stroke-linecap:butt;stroke-linejoin:miter;stroke-opacity:1"
           id="path11546" />
      </g>
      <path
         id="path11654"
         d="m 291.1765,554.23077 11.6167,16.0361 -1.7677,13.7634 23.9911,-1.7678 3.6618,-24.3699 36.7443,-17.1726 -0.3788,23.1072 -12.1218,19.698 -7.1538,17.014 -4.6429,28.5714 -6.7649,36.8683 -27.7792,0 -10.6066,-31.8198 -6.0609,12.1218 -7.5762,-26.264 4.5457,-7.5761 -0.505,-31.3147 z"
         style="fill:#b6b6b6;fill-opacity:1;fill-rule:evenodd;stroke:none;stroke-width:1px;stroke-linecap:butt;stroke-linejoin:miter;stroke-opacity:1" />
    </g>
    <g
       style="display:inline;opacity:1"
       id="layer8">
      <path
         id="path11607"
         d="m 262.6712,568.53067 c -1.1073,-4.2243 -1.2353,-11.0283 3.481,-16.745 l 3.2754,0.2449 c 0.6529,-0.5357 1.2202,-0.9046 2.6823,-1.2091 l 0.2971,1.4846 2.5471,-2.2665 1.4335,2.0739 2.4145,-2.5547 c 1.4842,3.7874 1.5443,15.0748 -3.0304,22.7284 -0.789,-2.3535 -1.7608,-4.2272 -1.6415,-8.9651 -1.1215,1.4758 -3.7638,2.7115 -6.0149,3.2646 0,-1.2663 0.2222,-3.4697 0.2222,-3.4697 -1.7986,2.0077 -3.2006,3.9064 -5.6663,5.4137 z"
         style="fill:#a90000;fill-opacity:1;fill-rule:evenodd;stroke:none;stroke-width:1px;stroke-linecap:butt;stroke-linejoin:miter;stroke-opacity:1" />
      <path
         id="path11609"
         d="m 253.9902,577.59047 c -2.2594,-1.0642 -14.0738,-5.4199 -6.2623,-14.1518 0,0 3.012,0.3087 3.8051,-0.5374 1.5671,-1.6717 4.3104,-2.8167 4.3104,-2.8167 0,0 2.3136,2.3752 2.6294,8.4146 0.4246,8.1185 -2.2232,10.1556 -4.4826,9.0913 z"
         style="fill:#a90000;fill-opacity:1;fill-rule:evenodd;stroke:none;stroke-width:1px;stroke-linecap:butt;stroke-linejoin:miter;stroke-opacity:1" />
      <path
         id="path11611"
         d="m 266.8397,589.55697 3.4821,-3.9286 0.2679,1.4286 3.5714,-1.875 0.7143,5.625 4.375,-3.3036 0.8036,6.6965 -5.8929,6.7857 0,-5.7143 -6.5178,5.1786 -0.4465,-6.25 -4.1071,2.4107 z"
         style="fill:#a90000;fill-opacity:1;fill-rule:evenodd;stroke:none;stroke-width:1px;stroke-linecap:butt;stroke-linejoin:miter;stroke-opacity:1" />
      <path
         id="path11613"
         d="m 395.7683,556.07487 c -1.0715,6.0714 -2.3215,11.4285 -5.8929,13.0357 0.6177,-6.4124 2.4631,-10.312 5.8929,-13.0357 z"
         style="fill:#a90000;fill-opacity:1;fill-rule:evenodd;stroke:none;stroke-width:1px;stroke-linecap:butt;stroke-linejoin:miter;stroke-opacity:1" />
      <path
         id="path11615"
         d="m 385.679,569.64627 c -0.1786,-6.7857 -0.8929,-14.5536 2.5893,-15.8036 6.2818,2.8329 0.2238,14.1456 -2.5893,15.8036 z"
         style="display:inline;fill:#a90000;fill-opacity:1;fill-rule:evenodd;stroke:none;stroke-width:1px;stroke-linecap:butt;stroke-linejoin:miter;stroke-opacity:1" />
      <path
         id="path11632"
         d="m 300.2325,551.61057 c 3.6653,1.6934 8.9344,8.4439 9.9108,14.1072 0.8502,4.9312 -3.125,14.6428 -3.125,14.6428 l 12.6785,-1.25 2.7309,-23.4578 c 0,0 20.5682,-10.5909 30.8406,-16.3636 3.2659,-1.8353 17.7004,-6.3588 6.1417,5.635 -11.5587,11.9938 -22.0753,10.3388 -27.7056,16.6864 -2.3125,2.6071 -2.8696,14.1404 -0.074,19.4949 3.4939,6.6919 -12.2679,11.7599 -15.2331,11.9718 -2.9651,0.2118 1.0773,-10.4572 1.0773,-10.4572 0,0 -4.3095,0.014 -5.8136,1.3119 -1.812,1.5634 -0.5749,5.4043 -2.5892,6.6964 -4.3108,2.7652 -15.2298,-0.3502 -15.3356,-0.9388 -0.1058,-0.5886 5.5309,-1.88 5.5222,-2.351 -0.015,-0.811 -5.5898,-0.6998 -5.3977,-1.2747 0.4982,-1.4909 1.5212,-2.4273 2.1779,-4.054 3.7074,-9.1829 3.6452,-10.7838 1.9285,-13.5091 -1.7168,-2.7252 -7.8395,-5.9293 -7.0204,-9.7475 1.3908,-6.4835 3.6553,-9.744 9.2857,-7.1428 z"
         style="fill:#a90000;fill-opacity:1;fill-rule:evenodd;stroke:none;stroke-width:1px;stroke-linecap:butt;stroke-linejoin:miter;stroke-opacity:1" />
      <path
         id="path11634"
         d="m 386.8397,592.50337 c 0.5913,-5.0122 3.1709,-10.1073 9.4643,-15.3571 l -1.25,5.625 c 2.3099,-1.5516 3.2958,-1.5145 4.4643,-1.6964 -0.3959,3.4739 -1.1356,7.578 -0.1786,8.5714 -1.9019,1.5447 -3.2726,2.5583 -4.4643,3.3929 l -0.8929,-3.3929 -1.7856,1.25 c -0.4167,-0.2712 -0.8334,-0.9517 -1.2501,-2.4107 z"
         style="fill:#a90000;fill-opacity:1;fill-rule:evenodd;stroke:none;stroke-width:1px;stroke-linecap:butt;stroke-linejoin:miter;stroke-opacity:1" />
      <path
         id="path11636"
         d="m 358.8567,590.78557 c -1.685,-5.1981 0.5382,-8.695 4.0406,-11.0485 1.0768,3.0409 2.3334,5.5425 3.9144,7.0711 l -1.5153,0.3788 2.0203,3.6618 -2.0054,1.1366 -0.3937,3.4722 c -1.6008,-1.1097 -3.5477,-1.9428 -6.0609,-4.672 z"
         style="fill:#a90000;fill-opacity:1;fill-rule:evenodd;stroke:none;stroke-width:1px;stroke-linecap:butt;stroke-linejoin:miter;stroke-opacity:1" />
      <path
         id="path11638"
         d="m 373.7565,587.37637 c 0.6506,-3.5386 1.3106,-7.079 9.0282,-11.9324 l -0.3788,4.5457 2.0203,-1.6415 c 0.206,4.0868 -2.0419,7.5602 -4.4826,10.9854 l -0.2525,-3.725 -2.2097,2.0835 -0.6314,-2.778 z"
         style="fill:#a90000;fill-opacity:1;fill-rule:evenodd;stroke:none;stroke-width:1px;stroke-linecap:butt;stroke-linejoin:miter;stroke-opacity:1" />
      <path
         id="path11648"
         d="m 400.273,572.16087 c 2.9883,-5.8033 1.4194,-10.518 7.071,-15.531 l 1.389,5.0507 2.841,-1.2626 -5.177,11.4273 -0.947,-3.2199 c -1.428,1.9038 -3.3098,2.7019 -5.177,3.5355 z"
         style="fill:#a90000;fill-opacity:1;fill-rule:evenodd;stroke:none;stroke-width:1px;stroke-linecap:butt;stroke-linejoin:miter;stroke-opacity:1" />
      <path
         id="path11650"
         d="m 367.1968,598.75337 c 0,0 2.5434,-2.0015 3.6607,-3.9285 -0.1615,3.876 5.289,10.1184 4.4643,12.3214 -0.8928,3.8393 -7.5893,10.0893 -7.5893,10.0893 3.178,-5.5615 -0.5357,-18.4822 -0.5357,-18.4822 z"
         style="fill:#a90000;fill-opacity:1;fill-rule:evenodd;stroke:none;stroke-width:1px;stroke-linecap:butt;stroke-linejoin:miter;stroke-opacity:1" />
      <path
         id="path11652"
         d="m 349.7653,617.74417 c 0,0 8.3969,-8.0182 14.5841,11.9323 -1.9181,14.6934 -10.1222,-9.9701 -14.5841,-11.9323 z"
         style="fill:#a90000;fill-opacity:1;fill-rule:evenodd;stroke:none;stroke-width:1px;stroke-linecap:butt;stroke-linejoin:miter;stroke-opacity:1" />
      <path
         id="path11656"
         d="m 330.7683,576.43197 c -0.5414,-6.2282 -1.9882,-14.1003 11.4286,-20.1785 l 0.5357,2.9464 c 2.2139,-2.0668 4.0784,-4.2734 7.4107,-5.8929 l 0.4464,5.3572 2.2321,-5.4465 c 4.1038,-5.7322 5.3869,-5.0284 6.25,-5.625 0.8631,-0.5966 0.1786,5.1786 0.2679,4.7322 0.089,-0.4465 3.0357,-2.2322 3.0357,-2.2322 l 2.6786,11.4286 -20.0893,11.7857 0.9821,-3.125 -11.7857,7.6786 z"
         style="fill:#cee91a;fill-opacity:1;fill-rule:evenodd;stroke:none;stroke-width:1px;stroke-linecap:butt;stroke-linejoin:miter;stroke-opacity:1" />
      <path
         id="path11658"
         d="m 288.7774,580.49467 2.2728,-20.4556 c 1.9897,4.5324 4.6427,1.2494 4.6107,17.6357 -2.416,3.0604 -3.3802,7.2772 -6.8835,2.8199 z"
         style="fill:#cee91a;fill-opacity:1;fill-rule:evenodd;stroke:none;stroke-width:1px;stroke-linecap:butt;stroke-linejoin:miter;stroke-opacity:1" />
      <path
         id="path11660"
         d="m 309.3397,663.93197 c -18.3555,-9.8565 -2.8228,-88.0548 6.4286,-81.0714 3.8084,6.8983 -2.4276,22.1107 -6.4286,81.0714 z"
         style="fill:#cee91a;fill-opacity:1;fill-rule:evenodd;stroke:none;stroke-width:1px;stroke-linecap:butt;stroke-linejoin:miter;stroke-opacity:1" />
      <path
         id="path11662"
         d="m 273.7514,372.78207 -3.283,0.2526 c 2.7671,16.9457 0.071,30.5293 -1.2627,44.9517 33.7068,-9.503 60.1773,-10.008 92.0052,2.834 15.2183,6.3022 36.7892,23.43 36.7892,23.43 0,-18.8562 -0.6193,-31.5191 0,-56.5685 -1.6611,0.7437 -5.3622,1.6056 -5.3622,1.6056 0,0 -1.0195,5.0264 -3.996,7.7673 l -0.112,-7.984 c -0.5233,-0.6024 -1.0041,-1.2673 -1.4446,-1.9862 -0.2256,-0.3683 -3.9005,2.285 -4.1053,1.8895 -0.2391,-0.4617 2.6169,-2.8406 2.4053,-3.3361 -1.9082,-4.4692 -2.7184,-10.2422 -2.79,-16.0126 l -7.3236,1.0102 c -1.1746,8.8618 -1.7016,16.31 -10.7482,17.6279 -6.8212,0.08 -9.5754,-2.6248 -16.2734,-1.4655 -0.1398,-7.0929 0.7024,-15.6587 -0.6313,-20.9606 -5.1286,0.5633 -6.3909,3.0046 -9.7227,4.1668 0.1084,6.3174 1.1076,9.8694 -1.5153,16.7938 0,0 -12.2902,2.8239 -17.4251,-0.8839 -6.0859,-4.3945 -6.4403,-20.5813 -6.061,-20.9606 -1.801,-0.4862 -3.2817,-1.1387 -7.071,2.0202 0.611,3.5691 0.6255,5.1275 1.2627,7.8287 -0.9424,0.067 -2.7029,-0.028 -3.0305,-0.8838 0.1973,3.5814 0.5045,7.7068 0,11.2379 -3.4001,5.4033 -2.115,-11.737 -4.5456,-11.7431 -0.2118,11.7826 -0.042,23.3175 -1.2628,33.0826 l -2.2728,0.505 c -1.9314,-4.635 -2.3617,-9.5492 -1.2627,-17.5514 l -3.7881,0.7576 c 0.5938,6.1496 1.1531,12.2648 0.7577,17.4252 0.145,0.8702 -6.6282,1.6473 -7.0711,-0.7577 -0.2525,-1.2626 -0.2525,-17.1725 -0.2525,-17.1725 -13.0621,1.1922 -8.3691,-12.6425 -8.4601,-23.3598 l -2.7779,0.8838 c 1.0034,1.5808 0.9012,3.3973 0.6314,5.5559 z"
         style="fill:#cee91a;fill-opacity:1;fill-rule:evenodd;stroke:none;stroke-width:1px;stroke-linecap:butt;stroke-linejoin:miter;stroke-opacity:1" />
      <path
         id="path11664"
         d="m 276.8396,397.41417 c 3.5715,-0.7143 6.25,6.0714 3.3929,8.0357 -8.9069,5.4702 -7.159,-7.0846 -3.3929,-8.0357 z"
         style="fill:#a90000;fill-opacity:1;fill-rule:evenodd;stroke:none;stroke-width:1px;stroke-linecap:butt;stroke-linejoin:miter;stroke-opacity:1" />
      <path
         style="fill:#a90000;fill-opacity:1;fill-rule:evenodd;stroke:none;stroke-width:1px;stroke-linecap:butt;stroke-linejoin:miter;stroke-opacity:1"
         d="m 303.895,391.97677 c 4.4028,-0.8356 7.7047,7.1025 4.1826,9.4004 -10.9801,6.3992 -8.8254,-8.2878 -4.1826,-9.4004 z"
         id="path11668" />
      <path
         id="path11670"
         d="m 343.0914,394.92317 c 4.4028,-0.8356 7.7047,7.1025 4.1826,9.4004 -10.9801,6.3992 -8.8254,-8.2878 -4.1826,-9.4004 z"
         style="fill:#a90000;fill-opacity:1;fill-rule:evenodd;stroke:none;stroke-width:1px;stroke-linecap:butt;stroke-linejoin:miter;stroke-opacity:1" />
      <path
         style="fill:#a90000;fill-opacity:1;fill-rule:evenodd;stroke:none;stroke-width:1px;stroke-linecap:butt;stroke-linejoin:miter;stroke-opacity:1"
         d="m 374.2521,400.19107 c 4.4028,-0.8356 7.7047,7.1025 4.1826,9.4004 -10.9801,6.3992 -8.8254,-8.2878 -4.1826,-9.4004 z"
         id="path11672" />
    </g>
    <g
       style="display:inline"
       id="layer5">
      <path
         id="path11434"
         d="m 305.2983,670.00387 c -2.0704,-2.2164 -3.8221,-3.1151 -6.0716,-3.1151 -2.6684,0 -3.1129,0.3365 -2.8488,2.157 0.4012,2.766 -1.8163,3.5869 -2.644,0.9789 -0.7553,-2.3797 -5.5431,-3.3752 -14.691,-3.0547 -3.4937,0.1224 -17.035,0.1248 -30.0919,0.01 -13.0568,-0.1195 -24.1632,0.044 -24.6809,0.3644 -0.5176,0.32 -1.2604,0.065 -1.6507,-0.5663 -0.3902,-0.6314 0.011,-1.5514 0.8925,-2.0445 1.4107,-0.7895 1.6135,-4.5042 1.6989,-31.1183 0.053,-16.622 0.2826,-31.5718 0.5095,-33.2218 0.2268,-1.65 0.4341,-33.7125 0.4606,-71.25 0.028,-39.0722 0.428,-68.25 0.9365,-68.25 1.4319,0 1.6672,8.4347 1.8692,67 0.3256,94.3764 0.3183,93.88 1.3183,89.5 2.0413,-8.9399 3.6976,-8.3405 4.3274,1.5663 0.4188,6.5877 1.7064,11.2891 3.374,12.3197 0.5164,0.3191 0.3006,-1.2724 -0.4795,-3.5367 -0.9016,-2.6168 -1.1823,-5.6921 -0.7703,-8.4394 0.5264,-3.5098 0.2542,-4.8233 -1.4476,-6.9868 -1.4277,-1.815 -1.9009,-3.4404 -1.4846,-5.0991 0.4354,-1.7349 -0.037,-3.125 -1.6452,-4.8364 -2.2448,-2.3895 -2.2477,-2.4332 -0.5685,-8.6946 0.9282,-3.4611 1.776,-6.968 1.8839,-7.793 0.1745,-1.3337 3.5341,-3.4955 4.2773,-2.7523 0.1599,0.1599 0.6571,3.6206 1.1048,7.6903 0.4839,4.3983 1.3211,7.5678 2.0641,7.8142 0.7049,0.2337 1.25,-0.4086 1.25,-1.4727 0,-2.5302 6.0587,-8.2795 8.7251,-8.2795 2.2882,0 6.2112,4.237 6.3746,6.8849 0.056,0.9072 0.4506,0.5194 0.9003,-0.8849 0.5798,-1.8103 0.8282,-0.6216 0.9004,4.309 0.055,3.745 0.4978,6.563 0.9843,6.2623 1.6446,-1.0164 1.8587,-7.0433 0.4226,-11.8937 -1.2235,-4.1325 -1.6447,-4.6425 -2.9437,-3.5643 -1.229,1.0199 -1.6933,0.9863 -2.4528,-0.1776 -0.5152,-0.7896 -0.7482,-2.2228 -0.5176,-3.1847 0.2305,-0.962 0.044,-1.9805 -0.4134,-2.2635 -0.9318,-0.5759 0.132,-4.9641 2.0844,-8.5981 l 1.2837,-2.3891 0.7622,2.8346 c 0.4192,1.559 0.509,3.4944 0.1996,4.3009 -0.3095,0.8064 0.4603,2.5551 1.7106,3.886 1.8532,1.9727 2.0453,2.6945 1.0397,3.9062 -0.9878,1.1902 -0.9311,1.9181 0.2846,3.6538 1.4883,2.1248 1.5329,2.0912 2.2681,-1.7071 0.6854,-3.5408 0.8066,-3.6592 1.4072,-1.3744 0.3614,1.375 1.1798,2.3875 1.8187,2.25 0.7743,-0.1667 1.1688,1.6664 1.1837,5.5 0.016,4.1625 0.5621,6.4402 1.9777,8.25 l 1.9556,2.5 0.1822,-8.5 c 0.1003,-4.675 0.367,-6.9948 0.5927,-5.155 0.2257,1.8397 1.3042,4.9363 2.3966,6.8812 1.0924,1.9449 1.7498,4.1522 1.4609,4.905 -0.2975,0.7754 0.1114,1.3688 0.9434,1.3688 2.4545,0 1.6401,2.9843 -1.0985,4.0255 -1.7722,0.6738 -2.4138,1.5177 -2.072,2.7252 0.2724,0.9621 0.7986,4.5775 1.1694,8.0342 0.5923,5.5214 0.8996,6.2134 2.5294,5.6961 1.4574,-0.4625 2.0489,0.1198 2.7584,2.7151 0.6517,2.3839 0.7853,0.7978 0.4798,-5.6961 -0.3741,-7.9521 -0.2556,-8.7934 1.0177,-7.2253 1.2797,1.576 1.5215,0.3793 2.1599,-10.6884 0.3953,-6.8546 0.4439,-12.9078 0.1079,-13.4515 -0.8767,-1.4184 1.3533,-24.6521 2.9689,-30.9316 0.9827,-3.8198 1.0781,-6.0453 0.342,-7.9813 -2.1045,-5.5353 -5.9001,-33.5611 -4.333,-31.994 0.2039,0.2039 1.0783,4.8485 1.9432,10.3214 1.4353,9.0828 1.8526,10.1882 4.784,12.6738 2.9401,2.4929 3.93,2.7251 11.7115,2.7474 8.0274,0.023 8.8337,-0.1778 14.5,-3.6105 3.3,-1.9992 9.15,-5.2094 13,-7.1337 8.6985,-4.3477 20.3971,-11.0786 22.8326,-13.137 1.0079,-0.8518 2.5206,-3.1329 3.3616,-5.069 0.9256,-2.131 1.7287,-2.9866 2.0349,-2.1679 1.0982,2.936 -5.0947,9.4522 -12.9145,13.5887 -11.4577,6.0608 -11.8874,7.3079 -0.6502,1.8869 2.6542,-1.2804 5.278,-2.328 5.8307,-2.328 2.0047,0 0.9329,1.8483 -2.2451,3.8715 -1.7875,1.138 -7.4315,5.0011 -12.5424,8.5847 -5.1108,3.5835 -9.6108,6.4191 -10,6.3013 -1.6525,-0.5002 -17.2311,8.8226 -16.977,10.1596 0.381,2.0038 2.7694,2.5784 2.7694,0.6662 0,-1.628 1.1602,-2.0899 2.3247,-0.9253 0.3619,0.3619 0.1615,1.2561 -0.4452,1.9872 -1.6408,1.9771 -0.2465,4.5483 2.2639,4.1749 2.2976,-0.3417 3.0116,-1.285 5.195,-6.8634 1.1567,-2.9555 2.6122,-4.1359 8.7742,-7.116 31.8544,-15.406 30.5279,-14.3507 32.4807,-25.8407 0.7946,-4.675 1.8725,-9.7655 2.3954,-11.3122 1.0695,-3.1638 -0.3272,-6.3431 -3.1852,-7.2502 -1.968,-0.6246 -1.3106,-3.4376 0.8035,-3.4376 0.8974,0 1.393,-1.1266 1.393,-3.1667 0,-1.7417 0.301,-2.8657 0.6689,-2.4978 0.3679,0.3678 1.4228,-0.014 2.3442,-0.8474 1.462,-1.3231 2.1093,-1.3374 5.0812,-0.1126 4.7071,1.9399 15.9057,3.1528 15.9057,1.7227 0,-0.6213 -1.8456,-1.1094 -4.25,-1.1241 -2.3375,-0.014 -7.2738,-1.0563 -10.9697,-2.3159 -4.296,-1.4641 -6.3257,-1.8155 -5.6275,-0.9742 2.0132,2.4258 0.1775,1.3482 -3.1972,-1.8769 -2.6334,-2.5167 -3.3191,-3.9463 -3.2376,-6.75 0.057,-1.9565 -0.3706,-4.1305 -0.9498,-4.8313 -2.1695,-2.6248 0.1501,-2.2134 4.6525,0.8253 6.4477,4.3514 22.4279,7.8541 28.8785,6.3297 l 3.2008,-0.7563 -3,-0.694 c -1.65,-0.3817 -4.9963,-0.7472 -7.4362,-0.8123 -5.6583,-0.1509 -18.5856,-3.7235 -22.8264,-6.3084 -3.7503,-2.2859 -6.2082,-5.9863 -4.3808,-6.5954 1.5462,-0.5154 1.4592,-3.1967 -0.1066,-3.2848 -0.6875,-0.039 -0.35,-0.4238 0.75,-0.8559 1.5103,-0.5933 2.9634,0.037 5.9347,2.5743 2.164,1.8479 5.539,3.8159 7.5,4.3733 6.532,1.8567 17.5003,2.9966 20.5653,2.1374 2.5367,-0.711 1.7653,-0.9594 -4.9953,-1.6082 -12.3583,-1.1859 -20.0211,-3.9473 -25.3641,-9.1405 -2.4956,-2.4255 -4.1534,-4.4101 -3.684,-4.4101 0.4694,0 0.1724,-0.7875 -0.66,-1.75 -0.8323,-0.9625 -1.9811,-3.1 -2.5527,-4.75 -0.5716,-1.65 -1.3833,-3.9 -1.8038,-5 -0.6352,-1.6615 -0.3563,-1.5717 1.6477,0.5307 3.3025,3.4647 10.1909,8.0884 17.6337,11.8364 9.3859,4.7264 10.9683,3.7029 1.7785,-1.1504 -10.0363,-5.3003 -16.7227,-9.913 -19.5147,-13.4625 -1.1915,-1.5148 -2.4631,-2.6453 -2.8258,-2.5122 -0.9113,0.3344 -3.9871,-8.6443 -4.082,-11.9157 -0.043,-1.4705 -0.6077,-4.9709 -1.2558,-7.7787 -0.9272,-4.0166 -1.8584,-5.5252 -4.3681,-7.0762 -1.7543,-1.0843 -4.3976,-1.9714 -5.874,-1.9714 -2.6428,0 -2.681,0.094 -2.4646,6.091 0.2016,5.5872 0.4954,6.3108 3.5524,8.75 4.1384,3.302 4.2754,5.159 0.3808,5.159 -2.087,0 -3.9992,-1.0783 -6.5264,-3.6806 l -3.5746,-3.6806 -2.7236,3.1603 c -3.2574,3.7796 -13.2009,9.8485 -18.4536,11.2629 -2.2949,0.6179 -3.77,1.6195 -3.77,2.5599 0,0.8496 -0.5625,1.3598 -1.25,1.1337 -1.7323,-0.5696 -2.1097,-7.7531 -0.5944,-11.3139 l 1.2519,-2.9417 0.3644,3.3145 c 0.3473,3.1586 0.5141,3.2816 3.546,2.6157 1.7498,-0.3843 5.1443,-1.6508 7.5434,-2.8145 3.5788,-1.7358 4.9655,-3.2826 7.7239,-8.6157 3.663,-7.0819 6.1757,-10.4111 8.4495,-11.1948 0.8548,-0.2946 0.068,-0.8185 -1.8879,-1.2573 -2.9509,-0.6619 -3.7908,-0.3414 -7,2.6716 -8.9557,8.408 -26.5715,16.3391 -39.1346,17.6194 -4.7534,0.4844 -6.5685,1.0821 -6.7896,2.2359 -0.2346,1.2244 1.6005,1.9915 8.2495,3.4481 10.6629,2.3361 11.5854,2.8472 9.2872,5.146 -1.1201,1.1204 -3.081,1.6816 -5.5,1.5741 -3.4508,-0.1533 -3.5553,-0.084 -1.2735,0.85 1.3671,0.5593 3.1982,0.8307 4.069,0.603 1.4387,-0.3763 1.4337,0.3719 -0.055,8.195 -1.851,9.727 -6.4687,20.4225 -10.3763,24.0333 -4.5409,4.1961 -3.0743,6.0853 4.7083,6.0647 7.7835,-0.021 11.7729,-1.1247 12.8854,-3.5664 1.5235,-3.3436 6.3241,-5.1302 8.5583,-3.1849 0.9485,0.8257 2.3307,1.283 3.0716,1.0161 1.0919,-0.3933 1.1218,-0.064 0.1578,1.7371 -0.9621,1.7977 -1.7636,2.1074 -4.1948,1.6212 -3.3661,-0.6733 -8.0476,0.1947 -7.3283,1.3586 0.2575,0.4165 -0.5048,2.731 -1.6938,5.1434 l -2.1619,4.386 -1.0061,-2.75 c -0.8097,-2.2131 -1.6274,-2.75 -4.1881,-2.75 -3.5649,0 -3.6936,0.3079 -5.0118,12 -0.6742,5.9802 -0.6004,6.3902 0.9235,5.1275 1.1252,-0.9323 1.6564,-1.0024 1.6564,-0.2186 0,0.6346 -0.675,1.4129 -1.5,1.7294 -1.0506,0.4032 -1.5,2.0418 -1.5,5.4687 0,5.7999 -1.4885,6.4936 -2.3516,1.0959 -0.5552,-3.472 0.5367,-15.9714 1.9487,-22.3077 0.5307,-2.3812 0.2555,-2.6575 -3.2058,-3.2192 -2.0825,-0.3379 -3.9246,-0.4761 -4.0936,-0.3071 -0.1691,0.1691 0.1448,2.6916 0.6975,5.6057 1.0188,5.3721 1.4045,17.7584 0.5256,16.8796 -0.4615,-0.4616 -2.441,-18.8949 -2.9604,-27.5681 -0.1434,-2.3961 0.1477,-3.9666 0.6749,-3.6407 1.1903,0.7356 6.5,-4.2967 8.4267,-7.9864 1.3127,-2.5141 1.3114,-3.0318 -0.011,-4.5 -0.8222,-0.9125 -1.7738,-3.0091 -2.1147,-4.6591 -0.6116,-2.9603 -0.5959,-2.9536 1.1815,0.5 0.9907,1.925 2.2471,3.4206 2.7919,3.3236 0.5449,-0.097 1.4914,-2.1221 2.1033,-4.5 1.0265,-3.9885 0.949,-4.3988 -1,-5.2949 -1.1619,-0.5343 -2.4814,-1.5627 -2.9322,-2.2854 -0.5261,-0.8437 -2.4049,-1.2119 -5.2491,-1.0287 -3.878,0.2499 -4.4298,0.573 -4.4306,2.5945 -4e-4,1.2848 0.4428,2.0348 0.9992,1.6909 0.6238,-0.3855 0.9555,1.3793 0.8817,4.691 -0.094,4.2256 -0.2515,4.6968 -0.7712,2.309 -0.3952,-1.8159 -0.9418,-2.5422 -1.3849,-1.8402 -0.4026,0.6379 -0.4589,1.8716 -0.125,2.7416 0.3652,0.9518 -0.032,1.8269 -0.9968,2.1972 -0.8821,0.3385 -1.6038,1.0438 -1.6038,1.5674 0,0.5237 0.3501,0.7357 0.778,0.4713 0.4279,-0.2645 1.8904,0.3811 3.25,1.4346 l 2.472,1.9155 -2.2141,0.6136 c -1.9759,0.5475 -2.0515,0.7763 -0.7024,2.1253 0.8315,0.8315 1.3395,1.6841 1.1289,1.8947 -0.8362,0.8362 -9.2854,-8.2132 -11.4302,-12.2423 -2.7451,-5.1566 -2.9819,-13.305 -0.694,-23.8787 0.833,-3.85 1.604,-8.0875 1.7132,-9.4168 0.1093,-1.3292 0.7611,-2.6042 1.4486,-2.8333 1.1965,-0.3987 1.8237,-3.2499 0.7149,-3.2499 -0.2944,0 -1.5901,0.6912 -2.8793,1.5359 -2.1208,1.3896 -2.4029,1.3826 -2.9618,-0.074 -0.9277,-2.4176 -0.6625,-40.3199 0.2862,-40.9063 0.452,-0.2793 0.608,-1.6262 0.3467,-2.9931 -0.4529,-2.3696 -0.8536,-2.5008 -8.6158,-2.8203 l -8.1409,-0.3352 8.25,-0.2035 8.25,-0.2036 0.1481,-4.25 c 0.081,-2.3375 0.2398,-4.925 0.3519,-5.75 0.1122,-0.825 0.2705,-2.009 0.352,-2.6313 0.1601,-1.2236 7.49,-3.3687 11.5114,-3.3687 1.9524,0 2.6207,0.6508 3.1519,3.0693 0.6286,2.8622 0.7934,2.9614 2.4423,1.4692 0.9725,-0.8801 3.9678,-1.8607 6.6563,-2.1791 l 4.8881,-0.579 -0.3576,8.8598 c -0.1967,4.8729 -0.7738,9.6441 -1.2824,10.6027 -0.8219,1.5491 -0.6546,1.6198 1.5048,0.6359 1.3362,-0.6088 2.8948,-2.0681 3.4636,-3.2428 0.5689,-1.1748 1.0647,-1.553 1.102,-0.8405 0.037,0.7125 -1.0369,2.4 -2.3869,3.75 -2.0596,2.0596 -3.4182,2.4545 -8.4433,2.4545 -8.1675,0 -9.1022,-1.411 -9.1022,-13.7415 l 0,-9.2966 -2.75,0.6814 c -8.5327,2.114 -7.7557,0.9603 -7.698,11.4313 0.029,5.184 0.2536,16.0092 0.5,24.0561 l 0.448,14.6306 3.6024,-1.8256 c 6.5656,-3.3274 30.8411,-6.3255 45.9463,-5.6744 11.1493,0.4806 25.9277,2.2724 28.9513,3.5103 0.825,0.3378 1.95,0.6517 2.5,0.6977 0.55,0.046 1.6099,0.4651 2.3554,0.9313 0.7454,0.4662 2.9954,1.0678 5,1.3368 9.7681,1.3112 33.9021,11.1272 37.7143,15.3396 1.5348,1.6959 1.5524,1.923 0.1491,1.923 -1.1895,0 -0.913,0.6943 1.095,2.75 l 2.6862,2.75 0.6508,-8 c 0.3579,-4.4 0.6954,-15.6721 0.75,-25.0492 l 0.099,-17.0492 -3.25,0.3154 c -3.784,0.3673 -6.6666,-1.7211 -9.2374,-6.6926 -1.6786,-3.246 -1.6865,-8.1189 -0.022,-13.5359 0.5655,-1.8403 0.237,-1.9812 -3.8592,-1.6554 l -4.4772,0.3561 -1.2128,5.1554 c -2.7612,11.7372 -6.7412,15.3889 -15.6749,14.382 -3.417,-0.3852 -5.3144,-1.2436 -6.9491,-3.1441 -3.0066,-3.4954 -4.6365,-9.9683 -3.8427,-15.2614 l 0.648,-4.3211 -3.8113,-0.045 c -2.0962,-0.025 -5.1613,-0.6632 -6.8113,-1.4188 -2.8866,-1.3217 -2.7301,-1.3767 4.143,-1.4548 8.0938,-0.092 8.3432,0.1386 8.379,7.7505 0.026,5.4403 3.1982,13.1682 5.4061,13.1682 2.4156,0 4.8467,-4.6804 4.8215,-9.2826 -0.013,-2.4061 0.6391,-4.969 1.5187,-5.9674 1.6365,-1.8576 7.2317,-2.4379 7.2317,-0.75 0,0.55 0.7053,1 1.5674,1 1.1284,0 1.407,0.6301 0.9947,2.25 -0.4998,1.9636 -0.4197,1.9318 0.6291,-0.25 0.661,-1.375 1.274,-2.6231 1.3623,-2.7736 0.088,-0.1505 2.9031,-0.5417 6.2553,-0.8693 l 6.0948,-0.5957 -0.5778,6.8923 c -0.6403,7.6379 0.6691,10.1175 4.6719,8.8471 1.7965,-0.5702 2.0618,-1.3638 1.8689,-5.5914 -0.1764,-3.8656 0.1907,-5.2421 1.7043,-6.39 1.061,-0.8047 2.5284,-1.2507 3.2609,-0.9912 0.7325,0.2595 2.195,0.4718 3.25,0.4718 1.6778,0 1.9182,0.752 1.9182,6 l 0,6 24.0833,0 c 18.8246,0 23.9914,0.273 23.6623,1.25 -0.3942,1.1705 -1.1621,1.3726 -6.2456,1.6443 -1.9844,0.1061 -2,0.8092 -2,90.3563 0,55.7482 -0.3678,91.014 -0.9622,92.2495 -1.7323,3.6008 -2.3142,-17.5155 -2.3563,-85.5001 -0.022,-36.025 -0.06,-72.5875 -0.084,-81.25 l -0.043,-15.75 -18.0271,0 -18.0272,0 0,16.5 c 0,9.8503 -0.3861,16.5 -0.9579,16.5 -0.5269,0 -1.102,-3.4875 -1.2779,-7.75 -0.176,-4.2625 -0.5324,1.363 -0.7921,12.5011 -0.2597,11.138 -0.1346,20.2505 0.2779,20.25 0.4125,-6e-4 0.75,-5.4276 0.75,-12.0601 0,-8.4907 0.3244,-11.8585 1.0963,-11.3815 0.7571,0.468 0.8936,4.4352 0.4412,12.823 l -0.655,12.1455 3.3087,3.0299 c 1.8199,1.6664 3.8777,3.9101 4.573,4.986 0.6953,1.0759 0.586,0.5222 -0.2429,-1.2305 -0.8289,-1.7526 -1.9603,-3.4666 -2.5142,-3.809 -0.5539,-0.3423 -1.0071,-1.1458 -1.0071,-1.7856 0,-0.6398 0.836,-0.2757 1.8578,0.809 5.3633,5.6937 7.1624,22.1055 3.1968,29.1613 -1.7044,3.0326 -1.9523,4.3719 -1.1716,6.3288 0.9641,2.4166 0.9919,2.3964 1.0536,-0.7679 0.077,-3.9593 1.4261,-4.1526 3.7903,-0.543 1.2659,1.9325 1.7532,4.5788 1.7036,9.25 -0.062,5.7918 -0.5581,7.4042 -4.3252,14.0431 -4.9952,8.8031 -8.0504,12.2616 -13.8553,15.6842 -4.2879,2.5282 -5.4552,4.3158 -2.8181,4.3158 0.7875,0 2.3143,1.2375 3.3928,2.75 1.2701,1.7812 4.3219,3.6306 8.6632,5.25 7.4607,2.7829 8.2244,3.4367 6.4757,5.5438 -0.6647,0.8009 -1.0409,1.4849 -0.836,1.52 0.2048,0.035 1.8071,0.2056 3.5607,0.3789 1.7535,0.1733 4.4017,1.2695 5.8848,2.4361 1.4832,1.1667 3.2348,2.1212 3.8925,2.1212 0.6578,0 3.4934,2.059 6.3014,4.5756 4.6188,4.1395 5.1019,4.9736 5.067,8.75 -0.026,2.78 -0.8204,5.2128 -2.3795,7.2833 -1.4954,1.9859 -2.139,3.8817 -1.7816,5.2482 0.6779,2.5922 -1.8593,6.7499 -4.6618,7.6393 -2.3455,0.7445 -9.0111,10.6372 -9.0111,13.3738 0,1.0072 -0.5059,3.2826 -1.1242,5.0563 -0.7643,2.1924 -0.7977,3.5516 -0.1041,4.2451 0.6935,0.6935 1.2417,-0.2912 1.7121,-3.0757 0.4281,-2.5342 1.2304,-4.0959 2.1041,-4.0959 1.8795,0 1.8366,4.7398 -0.085,9.3379 -1.1642,2.7863 -1.2475,4.1293 -0.375,6.0442 0.8294,1.8204 0.8286,3.3029 0,5.6891 -0.6188,1.775 -1.1181,3.7226 -1.1097,4.328 0.028,2.0048 1.9239,-1.8094 4.0509,-8.1492 1.1533,-3.4375 2.5102,-6.25 3.0153,-6.25 1.2623,0 1.196,0.5387 -1.0756,8.736 -1.5683,5.6596 -1.7576,7.7148 -0.8865,9.6267 0.9323,2.0462 0.5392,3.7455 -2.4841,10.7385 -2.6741,6.185 -3.278,8.5027 -2.3635,9.0712 0.6755,0.4199 1.3782,0.3279 1.5615,-0.2045 0.1834,-0.5324 0.7259,-0.9679 1.2057,-0.9679 0.4797,0 0.2172,1.8565 -0.5834,4.1257 -2.0087,5.6934 -1.8837,5.7653 1.618,0.9313 4.6633,-6.4375 4.7173,-4.0279 0.069,3.0858 -4.598,7.0372 -4.637,8.9769 -0.076,3.7946 2.5981,-2.9522 2.9344,-3.1065 2.3819,-1.0927 -0.3539,1.2896 -2.4197,4.8805 -4.5908,7.9798 l -3.9474,5.6352 3.1034,1.0449 c 3.7483,1.262 2.9004,2.4954 -1.7155,2.4954 -1.8527,0 -4.5686,0.7862 -6.0352,1.7473 -2.361,1.5469 -2.5955,1.5615 -2.0452,0.1275 0.5642,-1.4702 -1.4907,-1.5863 -22.2627,-1.2585 -12.5863,0.1986 -23.9285,-0.036 -25.2049,-0.5212 -1.6014,-0.6089 -2.9092,-0.452 -4.2192,0.5059 -1.6064,1.1746 -2.2188,1.1783 -3.9803,0.024 -2.303,-1.509 -19.6085,-1.6298 -22.9016,-0.1599 -1.139,0.5084 -2.1142,0.4001 -2.5355,-0.2815 -0.4201,-0.6797 -3.9549,-1.0776 -9.1491,-1.0299 -10.0037,0.092 -12.2891,0.5577 -11.5962,2.3634 0.282,0.7351 -0.1315,1.8712 -0.9189,2.5248 -1.1534,0.9572 -1.9977,0.5825 -4.3418,-1.9269 z m -46.0953,-7.0922 c -1.7724,-3.3117 -4.5122,-4.233 -6.3965,-2.1508 -1.3165,1.4547 -2.496,1.6772 -6.0394,1.1394 -5.1666,-0.784 -9.5764,-3.3913 -9.5764,-5.6619 0,-0.8823 -1.3552,-4.3594 -3.0116,-7.7269 -1.6564,-3.3675 -3.4071,-8.1477 -3.8904,-10.6227 -0.6999,-3.5838 -0.9039,-1.7514 -1.0021,9 -0.068,7.425 -0.3945,14.5125 -0.7262,15.75 l -0.6029,2.25 16.1518,0 c 15.7795,0 16.1274,-0.046 15.0937,-1.9771 z m 5.9877,0.4419 c 0,-1.2253 -0.4037,-1.3191 -2,-0.4648 -1.1,0.5887 -2,1.2795 -2,1.5351 0,0.2557 0.9,0.4649 2,0.4649 1.1315,0 2,-0.6667 2,-1.5352 z m 21,-0.087 c 0,-1.2913 -0.291,-1.3809 -1.4258,-0.4391 -1.5936,1.3226 -4.6865,1.0891 -5.8089,-0.4385 -0.4148,-0.5647 -0.7413,-0.2382 -0.75,0.75 -0.012,1.3776 0.836,1.75 3.9847,1.75 3.0231,0 4,-0.3962 4,-1.6224 z m 16,1.2042 c 0,-1.1085 -1.2887,-3.5817 -1.8664,-3.5817 -0.3589,0 -1.2145,0.9 -1.9015,2 -1.1244,1.8004 -0.9987,2 1.2595,2 1.3796,0 2.5084,-0.1882 2.5084,-0.4182 z m 6.2946,-3.8318 c -2.7573,-7.9633 -2.6444,-27.4332 0.1429,-24.6459 0.3004,0.3004 1.1965,4.2716 1.9914,8.8248 0.7949,4.5532 1.5861,8.419 1.7582,8.5906 0.6437,0.6418 0.1282,-33.1056 -0.5365,-35.1242 -0.7871,-2.39 2.4199,-19.8526 4.7556,-25.8953 l 1.5462,-4 -0.5894,4 c -0.3241,2.2 -1.4718,7.825 -2.5504,12.5 -1.6766,7.2669 -1.8056,9.5155 -0.8892,15.5 0.5895,3.85 1.2366,8.125 1.4381,9.5 0.221,1.5093 0.4262,0.9149 0.5177,-1.5 0.083,-2.2 0.5648,-4.6534 1.0701,-5.4521 0.6006,-0.9494 1.0364,2.3397 1.2588,9.5 0.1872,6.0237 0.7434,11.8134 1.2361,12.8662 0.6767,1.4461 0.5834,1.721 -0.3817,1.1245 -0.9952,-0.615 -1.1985,0.5088 -0.92,5.086 0.2626,4.3148 0.025,5.809 -0.8925,5.6254 -0.8449,-0.169 -1.245,1.1272 -1.2347,4 0.011,3.1125 0.2748,3.8485 0.9847,2.75 0.6463,-1 0.9745,-1.0833 0.9847,-0.25 0.01,0.6875 0.6153,1.25 1.3487,1.25 0.7333,0 1.3547,-0.5625 1.3808,-1.25 0.026,-0.6875 0.4027,-2.1113 0.8367,-3.164 0.5565,-1.3502 0.4443,-1.701 -0.3809,-1.191 -0.6947,0.4293 -1.17,0.1137 -1.17,-0.7769 0,-3.1465 3.3418,-2.0957 3.6,1.132 0.4107,5.1337 0.7031,5.4864 1.4502,1.75 2.0982,-10.4937 4.0415,-18.5631 5.8999,-24.5 1.119,-3.575 2.0813,-7.625 2.1383,-9 0.057,-1.375 0.7112,-4.75 1.4539,-7.5 l 1.3502,-5 -0.2146,4.1658 c -0.1181,2.2913 0.1311,3.9522 0.5537,3.691 0.4227,-0.2612 0.7684,0.2001 0.7684,1.0251 0,0.825 -0.4002,1.7474 -0.8895,2.0498 -0.4892,0.3023 -1.1317,2.0164 -1.4277,3.809 -0.296,1.7926 -0.9767,5.0593 -1.5125,7.2593 -1.2654,5.1955 -5.1703,22.7464 -5.1703,23.2384 0,0.2088 0.45,0.1015 1,-0.2384 1.4371,-0.8882 1.2351,1.856 -0.25,3.397 -1.0109,1.049 -0.8675,1.2292 0.75,0.9418 1.4789,-0.2626 2.0742,-1.2651 2.2845,-3.847 0.48,-5.8939 3.2556,-18.7573 5.898,-27.3351 1.382,-4.4862 2.8757,-12.2067 3.3194,-17.1567 0.4437,-4.95 1.1343,-10.2743 1.5346,-11.8317 0.6712,-2.6112 0.369,-2.4554 -3.8811,2 -4.0822,4.2794 -4.6117,4.5696 -4.6322,2.5388 -0.014,-1.3523 1.7826,-4.2236 4.3793,-7 4.3218,-4.621 8.4756,-12.4803 11.1096,-21.0205 l 1.3304,-4.3134 -2.6713,1.7167 c -1.4691,0.9442 -3.5588,2.3228 -4.6437,3.0634 -2.2374,1.5275 -4.9342,1.8138 -4.0809,0.4332 0.3105,-0.5024 2.4745,-1.848 4.809,-2.9902 2.3344,-1.1422 6.9444,-4.6043 10.2444,-7.6936 6.0702,-5.6827 5.3102,-5.8676 -2,-0.4867 -9.9771,7.3441 -19.3503,12.171 -25.5841,13.1749 -3.4483,0.5554 -6.5491,1.1824 -6.8905,1.3934 -0.3415,0.211 -1.2744,-0.03 -2.0731,-0.535 -1.0576,-0.669 -0.5714,-0.9229 1.7889,-0.934 5.5495,-0.026 19.3059,-6.805 38.0088,-18.7295 2.8875,-1.841 5.25,-3.585 5.25,-3.8756 0,-0.2905 -0.413,-0.273 -0.9177,0.039 -0.524,0.3238 -0.8986,-2.3325 -0.873,-6.191 0.048,-7.2275 -1.031,-14.5377 -2.0739,-14.0533 -0.3495,0.1623 -4.1523,2.0282 -8.4508,4.1464 -9.0365,4.4529 -11.3343,4.5538 -2.8738,0.1261 8.6712,-4.5379 13.4356,-7.5643 12.8424,-8.1576 -0.2948,-0.2947 -3.1498,1.0444 -6.3445,2.9758 -5.549,3.3547 -10.3312,5.6897 -22.1493,10.8151 -2.9374,1.2739 -6.4249,3.6047 -7.75,5.1795 -2.4852,2.9534 -3.3142,8.7098 -1.2544,8.7098 0.7147,0 0.556,0.6671 -0.4163,1.75 -0.8643,0.9625 -1.7215,3.0653 -1.905,4.6729 -0.421,3.6881 -2.8337,4.7366 -2.8337,1.2316 0,-2.2308 -0.3854,-2.4922 -3.4397,-2.3334 -3.1201,0.1623 -3.5381,0.5507 -4.4978,4.1789 -1.2019,4.5435 -5.4644,8.501 -6.4342,5.9737 -0.3209,-0.8361 10e-4,-1.4736 0.7448,-1.4736 1.9888,0 3.8304,-7.4602 3.0789,-12.4719 -0.8809,-5.8742 -7.4424,-13.5281 -11.5973,-13.5281 -1.5701,0 -2.9232,0.5625 -3.007,1.25 -0.084,0.6875 -0.2189,1.925 -0.3004,2.75 -0.082,0.825 1.5246,3.5427 3.5691,6.0393 3.3248,4.0602 3.6312,4.9048 2.9028,8 -0.4942,2.0998 -0.8547,2.6291 -0.9168,1.3462 -0.056,-1.163 -1.4452,-3.638 -3.0864,-5.5 -1.6412,-1.8621 -3.0299,-3.8355 -3.0859,-4.3855 -0.056,-0.55 -0.5288,0.35 -1.0504,2 -1.6417,5.1924 -2.2167,31.2627 -0.972,44.063 0.6452,6.6347 0.8575,12.8853 0.4719,13.8903 -0.6788,1.7688 -0.744,1.7687 -2.0404,0 -2.4764,-3.3867 -1.6048,1.4736 1.414,7.8842 l 2.7468,5.8334 -0.3461,-13.5004 c -0.2251,-8.7816 0.044,-14.1411 0.7715,-15.3334 0.8696,-1.4261 1.0417,-0.1128 0.7757,5.9163 -0.274,6.2083 0.019,8.2962 1.4719,10.5 l 1.8139,2.7508 0.1546,-4.5 c 0.2723,-7.9233 0.3393,-8.3169 1.4819,-8.7028 0.8015,-0.2708 1.0685,3.6147 0.9319,13.5604 -0.1349,9.8272 0.1344,13.8149 0.9126,13.5163 0.6233,-0.2392 1.6351,1.6556 2.3235,4.3512 3.0126,11.7964 5.638,20.2749 6.2782,20.2749 0.3831,0 0.034,-1.9125 -0.775,-4.25 z m 8.7054,-0.309 c 0,-0.8574 0.4574,-1.2763 1.0163,-0.9309 0.559,0.3455 0.7575,1.0471 0.441,1.5591 -0.8572,1.387 -1.4573,1.1284 -1.4573,-0.6282 z m 4.3302,-15.1909 c 1.4583,-20.3761 1.8287,-23.7952 2.6693,-24.6425 0.8417,-0.8483 0.7491,1.8032 -0.5375,15.3925 -0.2864,3.025 -0.4784,8.3125 -0.4265,11.75 0.065,4.283 -0.2875,6.25 -1.1187,6.25 -0.9057,0 -1.0543,-2.2154 -0.5866,-8.75 z m 3.207,4 c 0.8117,-5.8453 7.1309,-32.2514 7.9026,-33.0232 1.3638,-1.3637 1.379,0.772 0.042,5.8197 -0.7947,2.9994 -2.4007,10.1785 -3.5688,15.9535 -1.1682,5.775 -2.4026,10.95 -2.7433,11.5 -0.3407,0.55 -0.4898,1.7875 -0.3315,2.75 0.1584,0.9625 -0.2179,1.75 -0.8362,1.75 -0.767,0 -0.9146,-1.5091 -0.4645,-4.75 z m -0.4582,-32.8334 c 0.048,-1.1649 0.2849,-1.4019 0.6041,-0.6041 0.2889,0.7218 0.2534,1.5843 -0.079,1.9166 -0.3323,0.3323 -0.5686,-0.2583 -0.5252,-1.3125 z m 12.0789,-3.4166 c 0,-1.375 0.227,-1.9375 0.5044,-1.25 0.2774,0.6875 0.2774,1.8125 0,2.5 -0.2774,0.6875 -0.5044,0.125 -0.5044,-1.25 z m -38.1579,-4.1089 c 0,-1.9299 0.6439,-4.3824 1.4308,-5.45 1.2966,-1.759 1.3786,-1.5189 0.8737,2.5589 -0.6999,5.6528 -2.3045,7.6659 -2.3045,2.8911 z m 7.4852,-12.6411 c 0.6602,-4.4029 2.2963,-8.8662 2.964,-8.0857 0.158,0.1846 -0.1892,3.1482 -0.7714,6.5857 -1.2323,7.2758 -3.2674,8.6681 -2.1926,1.5 z m -10.4179,-14.25 c 0,-0.825 0.6467,-2.625 1.4327,-4 1.3065,-2.2855 1.4322,-2.3233 1.4646,-0.4412 0.02,1.1324 -0.6253,2.9324 -1.4328,4 -1.1079,1.4648 -1.4673,1.5731 -1.4645,0.4412 z m 18.9327,-1.9086 c 3.025,-0.439 7.075,-1.1088 9,-1.4884 2.9577,-0.5831 3.2023,-0.5057 1.5783,0.4993 -1.057,0.6541 -5.107,1.3239 -9,1.4884 -6.9904,0.2953 -7.01,0.2891 -1.5783,-0.4993 z m 23.5556,-6.1814 c 1.1006,-1.7808 20.485,-15.9136 21.7658,-15.869 2.6677,0.093 -18.2078,16.959 -20.9904,16.959 -0.7969,0 -1.1459,-0.4905 -0.7754,-1.09 z m 4.4444,89.6213 c 0,-0.8945 -0.5863,-1.2436 -1.5,-0.893 -0.825,0.3166 -1.5,0.9775 -1.5,1.4687 0,0.4911 0.675,0.893 1.5,0.893 0.825,0 1.5,-0.6609 1.5,-1.4687 z m 14,1.0277 c 0,-1.0555 -1.9191,-1.4989 -2.4899,-0.5753 -0.3454,0.5589 0.073,1.0163 0.9309,1.0163 0.8575,0 1.559,-0.1985 1.559,-0.441 z m 10,-2.4772 c 0,-1.6051 0.2913,-3.7426 0.6472,-4.75 1.1939,-3.3792 -1.4567,-0.038 -3.1084,3.9182 -1.5072,3.61 -1.4905,3.75 0.4478,3.75 1.5579,0 2.0134,-0.6602 2.0134,-2.9182 z m 11.1992,1.6377 c -3.8647,-0.742 -5.6123,-0.7064 -6.45,0.1313 -0.8655,0.8655 0.4428,1.1167 5.3008,1.0178 l 6.45,-0.1314 z m 22.8008,0.1092 c 0,-0.6442 0.7473,-1.9969 1.6606,-3.0061 0.9133,-1.0092 1.3733,-2.1221 1.0223,-2.4731 -0.8601,-0.8601 -8.5755,2.2075 -11.6829,4.645 l -2.5,1.961 5.75,0.022 c 3.7399,0.014 5.75,-0.3872 5.75,-1.149 z m 13,0.1713 c 0,-1.1737 -0.7686,-1.1737 -3.5,0 -1.7722,0.7615 -1.6868,0.8674 0.75,0.9297 1.5125,0.039 2.75,-0.3797 2.75,-0.9297 z m 3.124,-7.5441 c 0.735,-2.9187 0.7247,-2.9276 -0.8118,-0.7059 -0.8558,1.2375 -2.0637,2.2683 -2.6841,2.2906 -0.6204,0.022 -2.7031,1.402 -4.6281,3.0659 l -3.5,3.0253 5.4399,-2.3599 c 4.3414,-1.8835 5.5901,-2.9569 6.1841,-5.316 z m 1.876,5.0441 c 0.7176,-0.8646 0.8148,-1.5 0.2295,-1.5 -0.5585,0 -1.2745,0.675 -1.5911,1.5 -0.3166,0.825 -0.4198,1.5 -0.2294,1.5 0.1904,0 0.9064,-0.675 1.591,-1.5 z m -172.1989,-7.7965 c -0.6237,-2.0322 -2.0354,-4.4843 -3.1371,-5.4492 -1.9155,-1.6776 -1.9738,-1.6742 -1.3335,0.077 0.3682,1.0075 0.6695,2.6775 0.6695,3.7111 0,1.6606 3.8953,6.3953 4.6448,5.6458 0.1596,-0.1597 -0.22,-1.953 -0.8437,-3.9851 z m 10.1989,2.2965 c 0,-1.1111 -0.6666,-2 -1.5,-2 -0.9333,0 -1.5,-0.9445 -1.5,-2.5 0,-1.375 -0.4803,-2.5 -1.0674,-2.5 -1.2532,0 -0.3874,3.4485 1.6946,6.75 1.7509,2.7764 2.3728,2.8419 2.3728,0.25 z m 86.6831,-0.1875 c -0.3192,-0.7978 -0.5561,-0.5608 -0.6041,0.6041 -0.043,1.0542 0.1929,1.6448 0.5252,1.3125 0.3323,-0.3323 0.3678,-1.1948 0.079,-1.9166 z m -40.6831,-1.3716 c 0,-0.8574 -0.4573,-1.2763 -1.0163,-0.9309 -0.5589,0.3455 -0.7574,1.0471 -0.441,1.5591 0.8573,1.387 1.4573,1.1284 1.4573,-0.6282 z m 14.6831,-0.6284 c -0.3192,-0.7978 -0.5561,-0.5608 -0.6041,0.6041 -0.043,1.0542 0.1929,1.6448 0.5252,1.3125 0.3323,-0.3323 0.3678,-1.1948 0.079,-1.9166 z m -61,-3 c -0.3192,-0.7978 -0.5561,-0.5608 -0.6041,0.6041 -0.043,1.0542 0.1929,1.6448 0.5252,1.3125 0.3323,-0.3323 0.3678,-1.1948 0.079,-1.9166 z m 92.7731,-14.2198 c 0.2831,-14.3196 -0.1623,-17.4952 -2.0302,-14.4729 -1.3115,2.122 -1.5559,17.1814 -0.3908,24.0885 0.6421,3.8072 1.3802,6.7096 1.6401,6.4497 0.26,-0.2599 0.6113,-7.4893 0.7809,-16.0653 z m 61.2938,12.5152 c 0.6875,-0.8196 1.25,-2.1343 1.25,-2.9215 0,-2.0943 -2.6988,0.3303 -4.7204,4.2407 -1.5396,2.9781 -1.5299,3.0281 0.3159,1.6219 1.0475,-0.798 2.467,-2.1215 3.1545,-2.9411 z m -94.7687,-10.8616 c -0.9025,-1.4145 -1.0067,-1.1049 -0.5478,1.6284 0.3116,1.8562 0.6532,5.4562 0.7592,8 0.1587,3.8101 0.2553,3.5232 0.5478,-1.6284 0.2003,-3.526 -0.1309,-7.0152 -0.7592,-8 z m 80.3745,5.2381 c -0.3133,-0.8166 -0.9165,-1.4847 -1.3403,-1.4847 -1.3623,0 -3.2092,2.8775 -2.5409,3.9589 0.9955,1.6107 4.5735,-0.6702 3.8812,-2.4742 z m -158.7516,-5.2139 c -1.0165,-1.0165 -1.8552,0.5139 -1.0212,1.8634 0.63,1.0194 0.8656,1.0202 1.2043,0 0.2316,-0.6948 0.1492,-1.5352 -0.1831,-1.8674 z m 144.2413,-1.7489 c 0.46,-2.3328 -1.7562,-1.5421 -3.6432,1.3 -1.4057,2.1171 -1.3664,2.1744 0.9144,1.3323 1.3108,-0.484 2.5388,-1.6685 2.7288,-2.6323 z m -14.9196,-6.1783 c 0.043,-0.6742 -0.7598,-0.9383 -1.9259,-0.6334 -1.6519,0.432 -1.9871,1.3295 -1.9258,5.1564 l 0.074,4.6334 1.8517,-4 c 1.0184,-2.2 1.885,-4.5204 1.9258,-5.1564 z m 38.1019,1.6045 c 1.3579,-2.5372 1.2137,-3.6148 -0.4838,-3.6148 -0.8008,0 -1.2223,0.3782 -0.9366,0.8404 0.2857,0.4622 -0.1841,1.1104 -1.044,1.4403 -0.8598,0.33 -1.5634,1.4377 -1.5634,2.4616 0,2.2786 2.5935,1.5526 4.0278,-1.1275 z m -38.6928,-20.852 c 1.965,-5.1721 4.1097,-9.8971 4.7661,-10.5 0.9062,-0.8324 1.0119,-0.6149 0.4392,0.9039 -2.1847,5.7948 -5.5259,15.612 -6.8718,20.1914 -1.5178,5.1638 -1.5145,5.1872 0.6049,4.4031 1.172,-0.4335 2.4389,-1.4196 2.8155,-2.1914 2.7851,-5.7076 5.1255,-12.5074 6.5061,-18.9031 2.0271,-9.3901 3.1251,-10.7245 2.8725,-3.4909 l -0.1945,5.5711 2.0171,-3.2901 c 3.8793,-6.3279 2.8745,-0.7605 -1.2041,6.6708 -3.0396,5.5383 -4.0757,8.5453 -4.0458,11.742 l 0.04,4.2971 2.2472,-5.2041 c 2.4064,-5.5726 4.5011,-8.6057 2.7348,-3.9598 -1.8008,4.7364 -1.1299,5.4096 0.9108,0.9139 2.4513,-5.4005 4.4916,-5.6827 3.6156,-0.5 -0.5907,3.4944 -0.5301,3.6177 0.8887,1.8088 1.0739,-1.3691 1.5226,-4.2912 1.5226,-9.9166 0,-4.3866 0.3192,-7.6564 0.7092,-7.2663 0.3901,0.3901 0.6068,2.3776 0.4816,4.4167 -0.1253,2.039 0.1779,4.3237 0.6737,5.077 1.0112,1.5365 1.9981,-1.1393 4.1931,-11.3696 1.5563,-7.2531 1.6113,-7.3351 3.3349,-4.9779 1.273,1.7409 1.5677,1.49 4.0858,-3.4794 2.3577,-4.6526 2.5114,-5.469 1.1714,-6.2189 -1.3255,-0.7418 -1.1276,-1.5309 1.4067,-5.6077 2.8514,-4.587 5.8584,-15.5496 5.9566,-21.7161 0.04,-2.4889 0.2184,-2.7074 1.049,-1.2824 1.6881,2.8962 0.502,15.0876 -1.9199,19.7343 -1.4103,2.7056 -1.8757,4.7017 -1.3256,5.6847 0.6301,1.126 1.6275,-0.2379 3.8838,-5.3108 1.6697,-3.7542 3.3506,-7.8383 3.7352,-9.0758 0.3846,-1.2375 1.3082,-2.25 2.0524,-2.25 0.7443,0 1.6294,-1.2578 1.9671,-2.7951 0.901,-4.1026 -2.5899,-11.2721 -6.6425,-13.6421 -1.8219,-1.0654 -3.7697,-2.5459 -4.3284,-3.29 -0.7271,-0.9683 -3.7064,-1.3572 -10.4803,-1.368 -7.0796,-0.011 -10.5404,-0.491 -13.7342,-1.9037 l -4.2697,-1.8887 -0.015,2.6938 c -0.052,9.297 -8.8614,26.7165 -19.0631,37.6938 -5.1721,5.5654 -6.9219,8.4248 -6.9219,11.3118 0,1.0688 -0.675,2.5035 -1.5,3.1882 -0.825,0.6847 -1.488,2.2023 -1.4733,3.3724 0.024,1.9345 0.1813,1.878 1.7316,-0.6224 1.8835,-3.038 3.8698,-3.7628 2.7403,-1 -0.3935,0.9625 -1.1648,3.325 -1.714,5.25 -1.4514,5.0868 -2.1201,5.7946 -2.8246,2.9899 -0.552,-2.1976 -0.8009,-1.9029 -2.1194,2.5101 -1.8651,6.2419 -1.2828,8.7643 1.2898,5.5874 l 1.7981,-2.2207 0.6442,2.5667 c 0.9186,3.66 2.0982,3.1727 2.8641,-1.1834 1.0697,-6.0843 3.6368,-14.5098 4.2378,-13.9088 0.3059,0.3058 -0.1666,4.5167 -1.05,9.3574 -3.1103,17.0446 -3.4415,19.7978 -2.5624,21.3014 0.6182,1.0573 0.886,0.4174 0.9074,-2.1682 0.035,-4.2618 0.9097,-7.0245 2.0083,-6.3455 0.7348,0.4541 2.8401,-4.8072 6.523,-16.3011 0.9366,-2.9231 1.9058,-5.1119 2.1537,-4.864 0.2479,0.2479 -1.3729,7.102 -3.6019,15.2313 -4.3573,15.8916 -5.3593,23.4193 -1.5902,11.9475 1.2649,-3.85 3.9075,-11.2318 5.8725,-16.4039 z m 14.8636,-2.1197 c 1.1482,-2.7629 2.2596,-4.8516 2.4697,-4.6415 0.4699,0.4699 -3.4091,9.6651 -4.0773,9.6651 -0.2641,0 0.4593,-2.2606 1.6076,-5.0236 z m -5.1986,-24.9413 c 0,-0.5306 0.9683,-1.483 2.1517,-2.1163 1.8577,-0.9942 2.0626,-0.9195 1.5,0.5466 -0.3584,0.934 -0.6517,1.8863 -0.6517,2.1164 0,0.23 -0.675,0.4182 -1.5,0.4182 -0.825,0 -1.5,-0.4342 -1.5,-0.9649 z m 4.4507,-20.3756 c -0.7104,-2.8306 0.3881,-5.3174 3.6094,-8.1707 l 2.2453,-1.9888 -0.781,3.5 c -0.4296,1.925 -0.8749,4.625 -0.9895,6 -0.283,3.3942 -3.2765,3.8776 -4.0842,0.6595 z m -149.7434,64.1021 c -0.2392,-1.2439 -0.444,-0.4616 -0.4551,1.7384 -0.011,2.2 0.1846,3.2177 0.4349,2.2616 0.2503,-0.9561 0.2594,-2.7561 0.02,-4 z m 13.3939,0.526 c -0.9606,-1.6506 -1.0427,-1.6279 -1.0708,0.2957 -0.034,2.3149 1.2353,4.1198 1.7696,2.5168 0.1879,-0.5636 -0.1266,-1.8292 -0.6988,-2.8125 z m 4.1983,-0.8461 c 1.5249,-3.0017 1.5027,-3.0777 -1.1992,-4.0976 l -2.7531,-1.0392 0.9946,4.3462 c 0.547,2.3904 1.0866,4.2343 1.1992,4.0976 0.1126,-0.1367 0.9039,-1.6248 1.7585,-3.307 z m 135.7005,2.6403 c 0,-0.5051 0.3015,-1.7039 0.67,-2.6641 0.4213,-1.0978 0.2805,-1.5051 -0.3793,-1.0974 -1.3823,0.8543 -2.3608,4.6797 -1.197,4.6797 0.4985,0 0.9063,-0.4132 0.9063,-0.9182 z m 34.9707,-6.3476 c -0.016,-0.6788 -1.3661,0.2354 -3,2.0315 -1.6338,1.7962 -2.9575,3.8212 -2.9413,4.5 0.016,0.6789 1.3661,-0.2353 3,-2.0315 1.6338,-1.7962 2.9575,-3.8212 2.9413,-4.5 z m -150.5535,3.6211 c 0.3471,-0.9045 -0.01,-2.367 -0.7887,-3.25 -0.985,-1.1138 -1.2731,-3.1362 -0.9411,-6.6053 0.2633,-2.75 0.02,-6.125 -0.541,-7.5 -0.7952,-1.9498 -1.0335,-0.2808 -1.083,7.5833 -0.035,5.5458 0.2366,10.3833 0.6033,10.75 1.1061,1.1061 2.0842,0.7584 2.7505,-0.978 z m -25.7341,-3.5428 c -0.3192,-0.7978 -0.5561,-0.5608 -0.6041,0.6041 -0.043,1.0542 0.1929,1.6448 0.5252,1.3125 0.3323,-0.3323 0.3678,-1.1948 0.079,-1.9166 z m 20.25,-7.5625 -0.067,-9.75 -1.4179,4.5 c -2.1338,6.7721 -1.7725,15 0.6587,15 0.4912,0 0.8629,-4.3875 0.8261,-9.75 z m 148.1426,7.0456 2.4243,-2.7043 -2.4451,1.5399 c -1.3449,0.847 -2.6199,2.0639 -2.8334,2.7043 -0.6126,1.838 0.2372,1.3795 2.8542,-1.5399 z m -123.3926,-5.4831 c -0.3192,-0.7978 -0.5561,-0.5608 -0.6041,0.6041 -0.043,1.0542 0.1929,1.6448 0.5252,1.3125 0.3323,-0.3323 0.3678,-1.1948 0.079,-1.9166 z m -13.9758,-6.0509 c -0.2392,-1.2439 -0.444,-0.4616 -0.4551,1.7384 -0.011,2.2 0.1846,3.2177 0.4349,2.2616 0.2503,-0.9561 0.2594,-2.7561 0.02,-4 z m 138.2621,-5.7616 c 0,-1.3334 -0.1077,-1.3334 -0.9694,0 -0.5331,0.825 -0.9693,2.175 -0.9693,3 0,1.3333 0.1077,1.3333 0.9693,0 0.5332,-0.825 0.9694,-2.175 0.9694,-3 z m -10.2194,-0.9436 c 2.7725,-2.3129 2.8508,-4.2028 0.2709,-6.5376 -2.0875,-1.8891 -2.1805,-1.8056 -3.3185,2.9812 -0.2615,1.1 -0.7996,2.7875 -1.1959,3.75 -0.9667,2.3481 1.322,2.2437 4.2435,-0.1936 z m -160.3684,-1.6084 c 0.3415,-0.8899 0.1738,-1.2913 -0.393,-0.941 -0.5437,0.3361 -0.9886,1.0344 -0.9886,1.552 0,1.4384 0.7168,1.1214 1.3816,-0.611 z m -3.3206,-9.6974 c -0.4136,-4.9471 -0.4748,-5.0483 -1.0581,-1.7506 -0.4991,2.8213 0.2659,6.9976 1.2823,7.0006 0.1182,3e-4 0.017,-2.3622 -0.2242,-5.25 z m 176.4422,-6.7568 c 2.3269,-4.592 4.7154,-15.3542 3.0727,-13.8454 -0.3883,0.3566 -2.4649,4.1497 -4.6148,8.429 -2.9444,5.861 -3.6383,8.1066 -2.8125,9.1016 0.603,0.7265 1.2587,1.321 1.457,1.321 0.1984,0 1.5023,-2.2528 2.8976,-5.0062 z m 9.4917,-10.7438 c 0,-0.6875 -0.4219,-1.25 -0.9438,-1.25 -0.522,0 -0.297,-1.5606 0.5,-3.4679 2.0407,-4.8842 1.919,-7.6428 -0.3011,-6.8237 -2.7374,1.01 -3.1547,2.2776 -3.1318,9.5148 0.012,3.719 -0.2567,7.7776 -0.5966,9.0193 -0.3618,1.3215 0.4364,0.599 1.9251,-1.7425 1.3987,-2.2 2.5454,-4.5625 2.5482,-5.25 z m -63.9043,-3.75 2.0225,-4 -2.1189,2.5 c -2.968,3.5017 -5.9902,8.3123 -5.9682,9.5 0.027,1.4875 3.7508,-3.424 6.0646,-8 z m -41.4005,-5.0512 c 0.2127,-0.65 -0.9983,-0.8945 -3.173,-0.6406 -1.9344,0.2258 -3.5171,0.8399 -3.5171,1.3645 0,1.2844 6.2542,0.6076 6.6901,-0.7239 z m 51.8029,-8.4374 c 0.3503,-0.5668 -0.051,-0.7345 -0.941,-0.393 -1.7324,0.6648 -2.0494,1.3816 -0.611,1.3816 0.5176,0 1.2159,-0.4449 1.552,-0.9886 z m 33.3404,-20.0267 c 1.4415,-0.013 1.464,-0.1463 0.1666,-0.9847 -2.3132,-1.4949 -3.0069,-1.1981 -2.921,1.25 0.043,1.2375 0.3059,1.6875 0.5833,1 0.2774,-0.6875 1.2544,-1.2569 2.1711,-1.2653 z m -31.3334,-0.9847 c 0.34,-0.55 -0.083,-1 -0.9409,-1 -0.8575,0 -1.5591,0.45 -1.5591,1 0,0.55 0.4235,1 0.941,1 0.5176,0 1.2191,-0.45 1.559,-1 z m -7.5562,-5.105 c -1.4357,-2.6828 -1.9438,-2.362 -1.9438,1.2274 0,2.6424 0.2274,2.9337 1.479,1.895 1.0981,-0.9113 1.2178,-1.7155 0.4648,-3.1224 z m 7.0562,-7.895 c 0,-0.55 -0.45,-1 -1,-1 -0.55,0 -1,0.45 -1,1 0,0.55 0.45,1 1,1 0.55,0 1,-0.45 1,-1 z m 13,-10.5 c 3.4023,-1.945 0.3216,-1.9741 -4.1351,-0.039 -3.0606,1.3287 -3.1388,1.4612 -0.8649,1.4645 1.375,0 3.625,-0.6394 5,-1.4254 z m 7.493,-5.4886 c 0.3503,-0.5668 -0.051,-0.7345 -0.941,-0.393 -1.7324,0.6648 -2.0494,1.3816 -0.611,1.3816 0.5176,0 1.2159,-0.4449 1.552,-0.9886 z m -4.993,-27.0176 c -1.65,-0.4411 -5.6247,-1.2792 -8.8326,-1.8625 -3.208,-0.5832 -8.2705,-2.1765 -11.25,-3.5406 -6.3813,-2.9214 -7.2407,-1.9838 -1.2617,1.3765 6.1422,3.4522 11.6151,4.9032 18.3443,4.8638 4.8788,-0.029 5.4394,-0.1851 3,-0.8372 z m -11.5,-12.4804 c 0,-0.5486 -6.901,-3.5577 -7.8721,-3.4325 -0.5157,0.067 6.8093,3.8075 7.6221,3.8928 0.1375,0.014 0.25,-0.1927 0.25,-0.4603 z m 23,-4.9544 c 0,-2.0878 -2.0745,-3.0506 -3.0964,-1.4372 -1.3557,2.1404 -1.0746,2.8781 1.0964,2.8781 1.1,0 2,-0.6484 2,-1.4409 z m -5.2932,-1.178 c 0.235,-0.7058 -0.5609,-0.9404 -2.1555,-0.6356 -1.3904,0.2658 -2.2662,0.9067 -1.9464,1.4243 0.7511,1.2152 3.6183,0.664 4.1019,-0.7887 z m 14.2721,-7.4205 c -0.6275,-1.1725 -1.4119,-1.8608 -1.7432,-1.5295 -0.3313,0.3312 -0.07,1.1348 0.581,1.7856 0.6508,0.6508 1.2554,2.7808 1.3434,4.7333 l 0.16,3.55 0.3999,-3.2038 c 0.2199,-1.762 -0.1136,-4.1631 -0.7411,-5.3356 z m -29.9774,1.9728 c -7.5259,-4.1478 -8.3481,-5.2529 -2.1584,-2.901 5.3328,2.0263 10.6857,2.6321 9.7402,1.1024 -0.2941,-0.4759 -2.0766,-1.1154 -3.9611,-1.4212 -4.7938,-0.778 -13.9149,-5.4163 -18.6923,-9.5056 -2.214,-1.8951 -3.8367,-3.6345 -3.6059,-3.8652 0.2307,-0.2308 2.6148,0.9257 5.2978,2.5699 2.683,1.6443 6.2282,3.2779 7.8782,3.6303 2.1824,0.4661 0.6834,-0.9077 -5.5,-5.0408 -10.4085,-6.9573 -13.4545,-10.5081 -13.4545,-15.6848 0,-4.7548 -1.035,-4.8942 -2.5374,-0.3418 -1.0353,3.1371 -0.8968,3.8038 1.4224,6.8444 2.6236,3.4398 3.5485,7.4031 1.4207,6.088 -0.6319,-0.3905 -0.069,1.2235 1.25,3.5866 2.6663,4.7758 9.3915,10.278 18.2504,14.9316 7.8512,4.1242 12.1321,4.1308 4.6499,0.01 z m 23.904,-1.6834 c -0.7368,-0.9625 -1.3946,-1.8652 -1.462,-2.0061 -0.067,-0.1409 -0.9394,0.6466 -1.9379,1.75 -1.7823,1.9694 -1.7555,2.0061 1.4619,2.0061 2.965,0 3.1497,-0.1668 1.938,-1.75 z m -3.6391,-2.9733 c 1.9652,-1.064 -0.6071,-2.0785 -2.7707,-1.0927 -1.3381,0.6097 -2.2076,1.473 -1.9323,1.9186 0.4452,0.7202 2.5204,0.3558 4.703,-0.8259 z m -119.8257,-2.8264 c 1.1957,-1.825 2.2233,-2.3743 3.615,-1.9326 1.0694,0.3394 1.9443,0.1902 1.9443,-0.3316 0,-0.7772 -7.201,-3.1861 -9.5244,-3.1861 -0.5218,0 -0.4063,1.8394 0.4867,7.75 0.1628,1.0776 2.1082,-0.2086 3.4784,-2.2997 z m 8.5593,1.5497 c 0,-0.55 -1.6875,-0.9931 -3.75,-0.9847 -2.7893,0.011 -3.3657,0.2637 -2.25,0.9847 1.9709,1.2737 6,1.2737 6,0 z m 109.402,-2.4197 -5.1685,-4.7163 c -6.8962,1.9604 -21.1978,-2.0034 -21.1978,-2.0034 7.0858,4.0529 17.2612,9.4364 26.3663,6.7197 z m -107.9819,-19.0216 c 8.4436,-2.8345 18.833,-8.6541 21.0177,-11.7732 1.9593,-2.7974 1.1327,-3.6117 -1.3686,-1.348 -1.0687,0.9671 -2.4061,1.4724 -2.9719,1.1227 -0.5657,-0.3497 -2.8262,0.2812 -5.0231,1.402 -2.197,1.1208 -4.2374,2.0378 -4.5343,2.0378 -1.4013,0 -0.2701,-1.7146 2.2101,-3.35 1.5125,-0.9973 1.9479,-1.56 0.9674,-1.2505 -20.179,6.3704 -24.9101,8.1157 -22.7174,8.3802 1.375,0.1659 5.7939,-0.773 9.8197,-2.0865 6.4758,-2.1127 7.1092,-2.1776 5.4944,-0.5628 -1.0039,1.0039 -4.2977,2.684 -7.3197,3.7335 -3.0219,1.0495 -5.3819,2.4095 -5.2444,3.0222 0.223,0.9934 -1.8206,1.5991 -4.0743,1.2076 -0.4534,-0.079 -0.5393,0.3179 -0.191,0.8816 1.0475,1.6948 6.2388,1.167 13.9354,-1.4166 z m 6.0799,-5.2841 c 0.55,-0.52 3.25,-2.1728 6,-3.673 2.75,-1.5001 4.1,-1.9889 3,-1.0863 -2.2378,1.8365 -10.5673,6.2412 -9,4.7593 z m 79.5,6.1744 c 0,-0.634 -6.5435,-3.4896 -7.7178,-3.368 -0.4302,0.044 1.0178,0.9327 3.2178,1.9738 4.5474,2.1518 4.5,2.1371 4.5,1.3942 z m -107.5,-8.449 c 0.34,-0.55 0.1415,-1 -0.4409,-1 -0.5825,0 -1.0591,0.45 -1.0591,1 0,0.55 0.1985,1 0.441,1 0.2426,0 0.7191,-0.45 1.059,-1 z m 10.5,-3 c 0.825,-0.5331 1.05,-0.9693 0.5,-0.9693 -0.55,0 -1.675,0.4362 -2.5,0.9693 -0.825,0.5332 -1.05,0.9694 -0.5,0.9694 0.55,0 1.675,-0.4362 2.5,-0.9694 z m 16.1459,-4.7792 c -0.7448,-0.2513 -2.3198,0.5438 -3.5,1.7668 l -2.1459,2.2237 3.5,-1.7668 c 2.1124,-1.0664 2.9632,-1.948 2.1459,-2.2237 z m 9.8541,-0.2208 c 1.213,-0.7838 1.0695,-0.9723 -0.75,-0.9847 -1.2375,-0.01 -2.25,0.4347 -2.25,0.9847 0,1.253 1.0613,1.253 3,0 z m 98.6623,-25.25 c -0.2774,-0.6875 -0.5044,-0.125 -0.5044,1.25 0,1.375 0.227,1.9375 0.5044,1.25 0.2774,-0.6875 0.2774,-1.8125 0,-2.5 z m 0.021,-4.9375 c -0.3192,-0.7977 -0.5562,-0.5607 -0.6041,0.6042 -0.043,1.0542 0.1929,1.6448 0.5252,1.3125 0.3323,-0.3323 0.3678,-1.1948 0.079,-1.9167 z m -8.3214,-0.3125 c 0.3985,-1.0386 -0.068,-1.5 -1.5155,-1.5 -1.7453,0 -1.8852,0.248 -0.8462,1.5 0.6847,0.825 1.3667,1.5 1.5155,1.5 0.1488,0 0.5296,-0.675 0.8462,-1.5 z m -111.695,229.8334 c -0.3667,-0.3667 -0.6667,-3.3667 -0.6667,-6.6667 0,-6.6939 1.0637,-7.0462 1.6157,-0.5352 0.1961,2.3132 0.6181,5.0299 0.9378,6.0372 0.5685,1.7911 -0.5623,2.4892 -1.8868,1.1647 z m -39.4717,-28.8333 c 0.02,-1.65 0.2445,-2.204 0.498,-1.231 0.2536,0.973 0.2369,2.323 -0.037,3 -0.2739,0.677 -0.4813,-0.119 -0.461,-1.769 z m 30.5276,-0.1108 c -1.2695,-1.2695 -0.7916,-12.9126 0.6087,-14.8275 1.1659,-1.5945 1.3595,-1.0357 1.5593,4.5003 0.1254,3.4765 0.412,6.6185 0.6367,6.9821 0.6349,1.0273 -1.9909,4.1589 -2.8047,3.3451 z m -40.0629,-5.152 c -0.4412,-0.7022 -0.1463,-2.5599 0.6643,-4.1849 1.2367,-2.4789 1.2468,-3.0031 0.067,-3.4558 -1.9527,-0.7494 -1.73,-2.9679 0.5759,-5.7358 2.1112,-2.5341 2.6682,-1.9157 1.0305,1.1443 -0.6702,1.2524 -0.6702,2.079 0,2.4933 1.2484,0.7715 1.3144,4.7738 0.1,6.0517 -0.4966,0.5225 -1.0696,1.85 -1.2734,2.95 -0.2655,1.4329 -0.5955,1.6419 -1.164,0.7372 z m 8.5723,-3.2372 c 0,-1.925 0.2058,-2.7125 0.4574,-1.75 0.2515,0.9625 0.2515,2.5375 0,3.5 -0.2516,0.9625 -0.4574,0.175 -0.4574,-1.75 z m 0.4445,-19.75 c -0.8646,-1.4684 1.1849,-4.9539 4.479,-7.6173 1.8395,-1.4874 4.4225,-3.6124 5.74,-4.7224 3.477,-2.9293 9.1333,-5.637 14.7083,-7.0408 2.6798,-0.6748 7.2845,-2.4957 10.2326,-4.0465 2.9481,-1.5508 5.7463,-2.581 6.2182,-2.2893 2.5132,1.5533 -5.3314,10.8305 -8.3484,9.873 -1.233,-0.3913 -2.8207,0.2599 -4.55,1.8662 -1.4609,1.3569 -4.4082,2.7328 -6.5496,3.0575 -2.1413,0.3247 -4.8703,1.5082 -6.0644,2.63 -1.2603,1.184 -3.5265,2.0396 -5.4021,2.0396 -3.1811,0 -8.1401,3.6275 -8.1401,5.9545 0,1.2015 -1.6654,1.4133 -2.3235,0.2955 z m 38.5591,-32.9761 c -2.955,-8.3237 -3.6298,-10.9521 -2.5091,-9.7739 1.1381,1.1965 5.5154,14.5915 4.9523,15.1546 -0.2163,0.2163 -1.3158,-2.205 -2.4432,-5.3807 z m 9.2836,-0.4633 c 0.898,-2.3401 6.5103,-5.0843 10.366,-5.0686 1.9881,0.01 5.6206,0.5619 8.072,1.2306 3.8676,1.0552 4.2096,1.3545 2.5859,2.2632 -1.3285,0.7435 -2.826,0.702 -5.1628,-0.143 -2.674,-0.9669 -3.822,-0.9158 -6.1204,0.2728 -1.5559,0.8046 -4.5064,1.7776 -6.5566,2.1622 -2.9917,0.5613 -3.6203,0.4196 -3.1841,-0.7172 z m 44.1683,-6.4565 c -0.3781,-0.3781 -0.6875,-1.4189 -0.6875,-2.3128 0,-2.7071 8.1058,-24.4336 9.7155,-26.0414 1.1555,-1.154 1.1021,-0.7061 -0.2315,1.9416 -0.9534,1.8929 -2.1068,4.7435 -2.5632,6.3347 -0.7135,2.4878 -0.6226,2.7212 0.6489,1.6659 2.4783,-2.0567 2.7997,-0.2668 1.0388,5.7852 -2.8525,9.804 -5.8945,14.6533 -7.921,12.6268 z m -6.5194,-3.9491 c -0.2782,-3.4672 -3.3605,-5.398 -8.7468,-5.4792 -2.7067,-0.041 -6.9463,-0.4721 -9.4213,-0.9586 -4.0467,-0.7954 -3.83,-0.843 2.1513,-0.4727 9.8669,0.6109 13.783,-0.2655 15.1404,-3.3883 1.1261,-2.5904 1.135,-2.5835 1.481,1.1438 0.1914,2.0625 0.1715,5.4375 -0.044,7.5 -0.2158,2.0625 -0.4679,2.8072 -0.5604,1.655 z m -37.7269,-6.9867 c -1.7763,-1.4473 -1.7856,-1.5322 -0.1094,-1 1.0075,0.3199 2.4966,0.5817 3.309,0.5817 0.8125,0 1.1992,0.45 0.8592,1 -0.8589,1.3898 -1.8058,1.2541 -4.0588,-0.5817 z m 9.0588,-0.4183 c -0.3615,-0.585 0.676,-1 2.5,-1 1.8241,0 2.8616,0.415 2.5,1 -0.3399,0.55 -1.4649,1 -2.5,1 -1.035,0 -2.16,-0.45 -2.5,-1 z m -5.5,-5.941 c 0,-0.5176 0.4449,-1.2159 0.9886,-1.552 0.5668,-0.3503 0.7345,0.051 0.393,0.941 -0.6648,1.7324 -1.3816,2.0494 -1.3816,0.611 z m 26.4791,-11.2139 c -3.3042,-3.6574 -3.9879,-4.0085 -5.7106,-2.9327 -1.826,1.1404 -1.9107,1.0115 -1.2653,-1.927 0.5271,-2.3996 0.2237,-3.6652 -1.2745,-5.3173 -1.0814,-1.1925 -2.2707,-3.4528 -2.6428,-5.023 -0.6479,-2.734 -0.4947,-2.6665 3.6188,1.5947 8.226,8.5214 13.7953,15.166 13.7953,16.4588 0,2.4947 -2.7935,1.2723 -6.5209,-2.8535 z m 2.3088,-16.0048 c -3.4655,-1.2545 -6.3743,-6.0993 -7.1089,-11.8404 l -0.5758,-4.5 1.7343,4.8492 c 2.4348,6.808 5.2228,9.6508 9.4644,9.6508 4.0297,0 5.7226,-1.6858 6.831,-6.8024 0.7825,-3.6125 0.7919,-3.5965 0.4095,0.6992 -0.5929,6.6595 -5.1017,9.9898 -10.7545,7.9436 z m 22.671,-7.9069 c -0.3625,-0.5866 -0.4447,-1.281 -0.1825,-1.5431 0.2621,-0.2622 0.743,0.2178 1.0687,1.0665 0.6762,1.7621 0.1,2.0721 -0.8862,0.4766 z m -5.0539,-7.1835 -1.905,-2.25 2.25,1.905 c 2.1145,1.7902 2.7053,2.595 1.905,2.595 -0.1897,0 -1.2022,-1.0125 -2.25,-2.25 z m -17.5032,-1.0857 c -1.5531,-0.7488 -2.1164,-3.6346 -2.2143,-4.368 -1.6518,-0.3778 -1.19,-0.3679 -4.5446,0.01 -2.475,0.279 -4.1429,0.5364 -4.1429,0.026 0,-1.1026 7.2462,-8.333 8.3512,-8.333 0.4218,0 0.4155,0.5625 -0.014,1.25 -2.063,3.3023 -1.2464,3.8201 5.7464,3.6436 6.6232,-0.1671 9.1391,-1.4996 4.9165,-2.6038 -1.1,-0.2877 -2,-0.9205 -2,-1.4064 0,-1.4774 -3.9056,-0.9885 -6.7852,0.8494 -2.5752,1.6436 -2.6443,1.6436 -1.3424,0 0.7549,-0.953 0.9799,-1.7471 0.5,-1.7646 -0.4798,-0.018 0,-0.6925 1.0687,-1.5 3.0846,-2.3331 5.9104,-1.7324 9.5589,2.0318 2.5289,2.6093 4.2332,3.5 6.6961,3.5 3.9137,0 4.3136,1.5829 0.8039,3.182 -1.4836,0.676 -2.5124,1.9885 -2.5304,3.2286 -0.03,2.0665 -0.043,2.0674 -1.1475,0.09 -0.6144,-1.1 -1.252,-2.1638 -1.4169,-2.364 -0.4868,-0.5909 -5.0408,2.2867 -4.7095,3.0081 -2.3861,2.6315 -4.8332,2.4651 -6.794,1.5196 z m 3.0982,-3.6643 c 0,-0.55 -0.45,-1 -1,-1 -0.55,0 -1,0.45 -1,1 0,0.55 0.45,1 1,1 0.55,0 1,-0.45 1,-1 z m 15.8125,2.3169 c 0.7219,-0.2888 1.5844,-0.2533 1.9167,0.079 0.3323,0.3323 -0.2583,0.5687 -1.3125,0.5252 -1.1649,-0.048 -1.4019,-0.2849 -0.6042,-0.6041 z m -46.7335,-15.9002 c 0.048,-1.1649 0.2849,-1.4019 0.6041,-0.6042 0.2889,0.7219 0.2534,1.5844 -0.079,1.9167 -0.3323,0.3323 -0.5686,-0.2583 -0.5252,-1.3125 z m 78.171,-27.5348 c -1.6661,-1.7086 -1.5812,-6.1534 0.199,-10.414 0.7969,-1.9073 1.5844,-3.4687 1.75,-3.4697 0.4404,4.8123 -5.0692,12.0503 1.69,12.2594 6.7591,0.2091 6.1429,-2.8634 3.1048,-7.1075 -3.1753,-4.3833 -2.7248,-5.7183 0.6411,-1.9001 3.2534,3.6907 4.4277,7.2823 3.0132,9.2167 -1.5842,2.1665 -8.7186,3.1375 -10.3981,1.4152 z m -98.444,-6.4084 c -0.9292,-2.0394 -0.8205,-3.2199 0.5643,-6.1238 1.9673,-4.1254 3.2128,-4.0135 1.6311,0.1466 -0.8229,2.1645 -0.7142,3.2931 0.4951,5.1387 1.8451,2.816 3.0444,2.9828 4.4234,0.615 0.5606,-0.9625 1.033,-1.2775 1.0497,-0.7 0.1131,3.9046 -6.4662,4.6489 -8.1636,0.9235 z m 66.4115,1.2765 c -2.4632,-2.9968 -1.78,-8.1413 1.5325,-11.5396 1.5125,-1.5517 2.248,-2.1213 1.6343,-1.2658 -1.8364,2.5602 -2.5029,6.9652 -1.3733,9.076 1.4714,2.7494 4.6199,2.4724 6.6216,-0.5826 1.5759,-2.4051 1.5711,-2.7876 -0.079,-6.2469 l -1.7572,-3.6849 2.1016,1.9019 c 3.3703,3.0501 2.8196,7.9425 -1.2428,11.041 -3.6901,2.8146 -5.8793,3.1975 -7.4382,1.3009 z m 56.0924,-5.25 c 0.01,-3.3 0.1923,-4.5294 0.4149,-2.7321 0.2225,1.7974 0.2179,4.4974 -0.01,6 -0.2282,1.5027 -0.4103,0.032 -0.4047,-3.2679 z m -95.7739,2.15 c -1.4553,-1.0642 -1.7172,-2.1454 -1.2368,-5.1058 0.6181,-3.8091 3.4447,-9.1337 4.3618,-8.2166 0.2756,0.2756 0.015,1.4101 -0.5799,2.521 -0.5946,1.111 -1.0811,3.653 -1.0811,5.6491 0,3.4754 0.1344,3.6158 3.173,3.3157 4.5431,-0.4487 5.7392,-4.3921 3.0072,-9.914 -1.8984,-3.8371 -1.9043,-3.9597 -0.1114,-2.3371 2.1716,1.9652 3.432,7.2845 2.4553,10.3618 -0.6035,1.9015 -5.1584,5.0759 -7.2833,5.0759 -0.4722,0 -1.6893,-0.6075 -2.7048,-1.35 z m -18.457,-2.2333 c 0.048,-1.1649 0.2849,-1.4019 0.6041,-0.6042 0.2889,0.7219 0.2534,1.5844 -0.079,1.9167 -0.3323,0.3323 -0.5686,-0.2583 -0.5252,-1.3125 z m 37.5133,-14.6667 c -2.8625,-2.5565 -6.5923,-11.4178 -6.5923,-15.662 0,-4.1046 1.1209,-9.088 2.0442,-9.088 0.4368,0 0.8085,2.5875 0.8261,5.75 0.043,7.8154 3.463,17.25 6.2522,17.25 0.4826,0 0.8775,-3.3251 0.8775,-7.3892 0,-9.4847 1.8809,-12.1626 8.2382,-11.7292 1.007,0.069 1.6766,0.8546 1.5916,1.8684 -0.081,0.9625 -0.039,4.675 0.093,8.25 0.2349,6.3701 0.2671,6.44 1.6133,3.5 0.7556,-1.65 1.394,-4.8757 1.4188,-7.1682 0.048,-4.4078 0.8169,-7.3318 1.9288,-7.3318 1.2757,0 -0.5493,14.5144 -2.2296,17.7331 -3.189,6.1083 -11.4163,8.1659 -16.0618,4.0169 z m -23.3973,-8.25 c 0.02,-1.65 0.2445,-2.2039 0.498,-1.2309 0.2536,0.9729 0.2369,2.3229 -0.037,3 -0.2739,0.677 -0.4813,-0.1191 -0.461,-1.7691 z m 0.3268,-14.4096 c 0.562,-0.5687 4.387,-1.3291 8.5,-1.6898 5.0698,-0.4447 7.1562,-0.328 6.4782,0.3623 -0.55,0.5599 -4.375,1.3203 -8.5,1.6898 -5.1611,0.4621 -7.1813,0.3492 -6.4782,-0.3623 z"
         style="display:inline;opacity:1;fill:#000000" />
    </g>
    <g
       style="display:inline"
       id="layer7">
      <use
         transform="translate(-957.6246,-767.71593)"
         height="100%"
         width="100%"
         y="0"
         x="0"
         id="use7289"
         xlink:href="#k-glyph"
         style="display:inline;opacity:1" />
      <use
         transform="matrix(0.33333333,0,0,0.33333333,-161.16896,52.090709)"
         height="100%"
         width="100%"
         y="0"
         x="0"
         xlink:href="#k-glyph"
         id="use7327"
         style="display:inline;opacity:1" />
      <use
         id="use7337"
         xlink:href="#k-glyph"
         x="0"
         y="0"
         width="100%"
         height="100%"
         transform="matrix(-0.33333333,0,0,-0.33333333,832.6578,983.76491)"
         style="display:inline;opacity:1" />
      <use
         transform="translate(-957.62461,-767.71593)"
         height="100%"
         width="100%"
         y="0"
         x="0"
         id="use7377"
         xlink:href="#clubs-glyph"
         style="display:inline;opacity:1" />
      <use
         transform="matrix(-0.2321572,0,0,-0.21432859,737.5366,816.44707)"
         height="100%"
         width="100%"
         y="0"
         x="0"
         xlink:href="#clubs-glyph"
         style="display:inline;opacity:1"
         id="use7436" />
      <use
         id="use7455"
         style="display:inline;opacity:1"
         xlink:href="#clubs-glyph"
         x="0"
         y="0"
         width="100%"
         height="100%"
         transform="matrix(0.2321572,0,0,0.21432859,-65.458236,218.65073)" />
    </g>
  </g>
</svg>
